<?xml version="1.0" encoding="UTF-8"?>
<svg id="Layer_1" data-name="Layer 1" xmlns="http://www.w3.org/2000/svg" xmlns:xlink="http://www.w3.org/1999/xlink" viewBox="0 0 187.6 60">
  <defs>
    <style>
      .cls-1, .cls-2 {
        fill: #4d067d;
      }

      .cls-3 {
        fill: url(#linear-gradient-3);
      }

      .cls-4 {
        fill: url(#linear-gradient-2);
      }

      .cls-5 {
        fill: #e2a029;
      }

      .cls-6 {
        fill: url(#linear-gradient);
      }

      .cls-2 {
        fill-rule: evenodd;
      }

      .cls-7 {
        fill: #485460;
      }
    </style>
    <linearGradient id="linear-gradient" x1="227.97" y1="182.95" x2="234.59" y2="182.95" gradientTransform="translate(-86.34 -132.12) rotate(-9.38)" gradientUnits="userSpaceOnUse">
      <stop offset="0" stop-color="#f7b82c"/>
      <stop offset=".52" stop-color="#fcd328"/>
      <stop offset="1" stop-color="#f7b72c"/>
    </linearGradient>
    <linearGradient id="linear-gradient-2" x1="227.26" y1="197.24" x2="232.7" y2="202.1" gradientTransform="translate(-86.34 -132.12) rotate(-9.38)" gradientUnits="userSpaceOnUse">
      <stop offset="0" stop-color="#fdde40"/>
      <stop offset=".51" stop-color="#fcd328"/>
      <stop offset="1" stop-color="#f7b72c"/>
    </linearGradient>
    <linearGradient id="linear-gradient-3" x1="234.61" y1="196.35" x2="227.4" y2="204.74" xlink:href="#linear-gradient-2"/>
  </defs>
  <g>
    <path class="cls-7" d="M4.91,30.49v2.93h-2.78V9.6h2.78v9.41c1.39-2,3.85-3.32,6.32-3.32,5.17,0,8.64,3.62,8.64,9.02s-3.47,9.02-8.64,9.02c-2.47.08-5.01-1.31-6.32-3.24ZM17.01,24.79c0-3.93-2.39-6.55-6.09-6.55s-6.01,2.62-6.01,6.55,2.39,6.55,6.01,6.55,6.09-2.62,6.09-6.55Z"/>
    <path class="cls-7" d="M22.49,24.79c0-5.4,3.47-9.02,8.71-9.02s8.71,3.7,8.71,9.33l-.31.31h-14.34c.15,3.62,2.47,6.01,5.86,6.01,2.54,0,4.78-1.54,5.55-3.85h2.78c-1.08,3.78-4.47,6.25-8.33,6.25-5.17,0-8.64-3.62-8.64-9.02ZM36.98,22.86c-.69-3.01-2.78-4.7-5.78-4.7s-5.09,1.7-5.78,4.7h11.56Z"/>
    <path class="cls-7" d="M42.61,24.79c0-5.4,3.39-9.02,8.48-9.02,2.39,0,4.86,1.31,6.17,3.24v-2.93h2.78v17.35h-2.78v-2.93c-1.39,1.93-3.85,3.24-6.17,3.24-5.09.08-8.48-3.55-8.48-8.94ZM57.18,24.79c0-3.93-2.39-6.55-5.86-6.55s-5.94,2.62-5.94,6.55,2.39,6.55,5.94,6.55,5.86-2.62,5.86-6.55Z"/>
    <path class="cls-7" d="M63.12,24.79c0-5.4,3.47-9.02,8.71-9.02,4.47,0,7.79,2.85,8.48,7.25h-2.62c-.54-2.85-2.85-4.78-5.86-4.78-3.55,0-5.94,2.62-5.94,6.55s2.39,6.55,5.94,6.55c3.01,0,5.32-2,5.86-4.93h2.62c-.69,4.47-4.09,7.4-8.48,7.4-5.24,0-8.71-3.62-8.71-9.02Z"/>
    <path class="cls-7" d="M84.25,28.95v-10.41h-2.78v-2.47h2.78v-6.48h2.78v6.48h5.09v2.47h-5.09v10.49c0,1.39.93,2.39,2.24,2.39h3.01v2.08c-.85.23-2,.39-2.85.39-3.08-.08-5.17-2-5.17-4.93Z"/>
    <path class="cls-7" d="M96.2,9.6h2.78v3.78h-2.78v-3.78ZM96.2,16.08h2.78v17.35h-2.78v-17.35Z"/>
    <path class="cls-7" d="M101.36,16.08h3.01l5.24,14.26,5.24-14.26h3.01l-6.94,17.35h-2.62l-6.94-17.35Z"/>
    <path class="cls-7" d="M119.09,24.79c0-5.4,3.47-9.02,8.71-9.02s8.71,3.7,8.71,9.33l-.31.31h-14.34c.15,3.62,2.47,6.01,5.86,6.01,2.54,0,4.78-1.54,5.55-3.85h2.78c-1.08,3.78-4.47,6.25-8.33,6.25-5.17,0-8.64-3.62-8.64-9.02ZM133.51,22.86c-.69-3.01-2.78-4.7-5.78-4.7s-5.09,1.7-5.78,4.7h11.56Z"/>
  </g>
  <g>
    <path class="cls-1" d="M69.98,51.31v-5.78h1.16v4.63l-.93,1.16h-.23Z"/>
    <path class="cls-1" d="M74.3,54.32h-1.16v-8.79h1.16v8.79Z"/>
    <path class="cls-1" d="M77.77,46.3c-.23,0-.54.08-.85.15v-.85c.39-.08.77-.15,1.23-.15,1.39,0,2.08.77,2.08,2.31v4.39c0,.77-.08,1.39-.23,1.85l-.08.23h-4.01v-.85h3.01c.08-.31.15-.77.15-1.23v-4.32c0-.54-.08-.93-.31-1.16s-.54-.39-1-.39Z"/>
    <path class="cls-1" d="M82.32,51.31v-5.78h1.16v4.63l-.93,1.16h-.23Z"/>
    <path class="cls-1" d="M88.87,53.39c.93,0,1.7-.31,2.31-1s1-1.7,1.08-3.08l.31-3.78h1.16l-.31,3.78c-.08,1.46-.54,2.7-1.31,3.55-.77.93-1.93,1.39-3.39,1.39h-2.93l-.77-8.71h1.16l.39,4.86.93-.31c.69-.23,1.08-.85,1.23-1.85l.23-2.7h1.16l-.23,2.31c-.08,1-.39,1.77-.77,2.24s-.93.77-1.62,1l-.85.23.15,2.08h2.08Z"/>
    <path class="cls-1" d="M99.05,54.32v-8.71c.77-.15,1.77-.15,3.01-.15,2.24,0,3.39.77,3.39,2.39v6.48h-6.4ZM104.37,53.39v-5.47c0-.77-.39-1.23-1.08-1.46-.39-.08-.77-.15-1.31-.15s-1.08,0-1.46.08h-.23v6.94h4.09v.08Z"/>
    <path class="cls-1" d="M107.53,51.31v-5.78h1.16v4.63l-.93,1.16h-.23Z"/>
    <path class="cls-1" d="M111.15,45.53h4.63v.85l-1.16,4.47-.69,3.39h-1.16l.69-3.39,1.16-4.47h-4.63v-2.7h1.16v1.85Z"/>
    <path class="cls-1" d="M117.17,51.31v-5.78h1.16v4.63l-.93,1.16h-.23Z"/>
    <path class="cls-1" d="M122.49,45.37c1,0,1.7.23,2.16.62s.69,1.16.69,2.16v5.24h1v.85h-6.4v-.85h4.24v-5.24c0-.69-.15-1.16-.46-1.39s-.85-.39-1.46-.39-1.31,0-1.93.08h-.31v-.93c.62-.08,1.46-.15,2.47-.15Z"/>
    <path class="cls-1" d="M128.89,54.32h-1.16v-8.79h1.16v8.79Z"/>
    <path class="cls-1" d="M134.67,45.37c.85,0,1.46.23,1.93.77s.62,1.23.62,2.16v6.01h-3.01v-.85h1.85v-5.09c0-1.31-.62-2-1.85-2-.46,0-.77.15-1.08.39s-.54.46-.77.69l-.62,6.86h-1.16l.62-6.71v-.15c0-.08,0-.31-.08-.62s-.15-.62-.23-.85l-.15-.39h1.16c.15.23.23.54.31.93h.08c.23-.31.46-.46.69-.62.54-.39,1.08-.54,1.7-.54Z"/>
  </g>
  <g id="logos">
    <g id="basic-logos">
      <g id="Group-3-Copy-3">
        <g id="bulb-copy-2">
          <path id="Fill-1" class="cls-2" d="M155.38,47.62c.01,1.38.02,2.76.02,3.92,3.33.57,6.73.57,10.06,0,1.6-.27,3.18-.67,4.71-1.19,0-1.35.02-2.85.04-4.28-1.76.65-3.57,1.14-5.42,1.45-3.11.53-6.29.56-9.41.1"/>
          <path id="Fill-3" class="cls-2" d="M155.42,54.98c.38,6.03,15.38,5.08,14.76-.87-3.65,1.32-10.67,1.68-14.76.87"/>
          <path id="Fill-5" class="cls-2" d="M157.65,12.65c-2.78,3.49-2.67,5.76-4.81,5.19-1.82-.49-.8-4.59,1.67-7.64,2.47-3.05,5.94-3.99,7.2-2.74.73.72-.96,1.29-4.06,5.19M178.2,16.57c0-8.57-6.9-15.51-15.41-15.51s-15.41,6.94-15.41,15.51c0,.71.05,1.42.15,2.12h0s0,.08.04.24h0c0,.07.03.15.04.24.1.57.22,1.13.38,1.69.78,2.89,1.9,5.67,3.33,8.3,2.3,4.25,3.58,8.27,3.87,11.82.05.67.09,1.61.13,2.69,3.34.66,11.76.26,15.02-1.91.02-.29.03-.55.05-.78.29-3.55,1.57-7.56,3.87-11.82,1.41-2.58,2.52-5.32,3.29-8.16.21-.7.37-1.42.48-2.15.01-.11.02-.17.02-.17h0c.1-.7.14-1.41.15-2.12"/>
        </g>
      </g>
    </g>
  </g>
  <g>
    <path class="cls-6" d="M170.7,6.79c-4.81.8-5.08,4.44-5.3,6.73l-.22,2.29s1.92-3.91,6.06-4.71c3.65-.7,7.18,2.02,7.18,2.02,0,0-2.32-7.22-7.71-6.33Z"/>
    <path class="cls-4" d="M179.5,16.4c.04,4.56-.89,8.03-3.57,14.54-.1.25-.21.5-.31.76-.26.62-.53,1.25-.8,1.88-2.52,5.81-5.57,11.99-5.57,11.99l-4.06-4.97s2.95-5.74,5.58-11.65c.26-.59.52-1.18.77-1.76.73-1.69,1.41-3.35,1.96-4.84,3.07-8.36,1.91-14.13,1.91-14.13,0,0,4.04,3.91,4.08,8.17Z"/>
    <path class="cls-5" d="M175.62,31.7c-.26.62-.53,1.25-.8,1.88-.75-.69-1.55-1.5-2.35-2.44-.65-.76-1.2-1.49-1.69-2.19.13-.29.26-.59.39-.88.13-.29.26-.59.38-.88l4.07,4.51Z"/>
    <path class="cls-3" d="M186.26,36.91s-8.73-8.45-13.56-14.42c-5.59-6.93-6.36-12.76-6.36-12.76,0,0-2.57,5-1.24,9.05,1.42,4.33,3.43,7.32,8.05,12.62,4.54,5.21,11.04,11.7,11.04,11.7l2.06-6.19Z"/>
  </g>
</svg>