<svg width="406" height="433" viewBox="0 0 406 433" fill="none" xmlns="http://www.w3.org/2000/svg">
<g style="mix-blend-mode:screen" opacity="0.64">
<path d="M306 0H100C44.7715 0 0 44.7715 0 100V332.938C0 388.167 44.7715 432.938 100 432.938H306C361.228 432.938 406 388.167 406 332.938V100C406 44.7715 361.228 0 306 0Z" fill="white"/>
<path d="M135.7 33.4161C135.7 36.9154 132.864 39.7522 129.364 39.7522V39.7522C125.865 39.7522 123.028 36.9154 123.028 33.4161V32.9957C123.028 29.1671 125.774 26.2393 129.364 26.2393C132.955 26.2393 135.7 29.1671 135.7 32.9957V33.4161Z" fill="black"/>
<path d="M160.307 33.4161C160.307 36.9154 157.47 39.7522 153.971 39.7522V39.7522C150.472 39.7522 147.635 36.9154 147.635 33.4161V32.9957C147.635 29.1671 150.38 26.2393 153.971 26.2393V26.2393C157.47 26.2393 160.307 29.076 160.307 32.5753V33.4161Z" fill="black"/>
<path d="M166.276 39.7522V39.7522C162.776 39.7522 159.939 36.9154 159.939 33.4161V32.5753C159.939 29.076 162.776 26.2393 166.276 26.2393V26.2393C169.866 26.2393 172.612 29.1671 172.612 32.9957C172.612 36.8244 169.866 39.7522 166.276 39.7522Z" fill="black"/>
<path d="M209.52 33.4161C209.52 36.9154 206.683 39.7522 203.184 39.7522V39.7522C199.684 39.7522 196.848 36.9154 196.848 33.4161V32.9957C196.848 29.1671 199.593 26.2393 203.184 26.2393C206.774 26.2393 209.52 29.1671 209.52 32.9957V33.4161Z" fill="black"/>
<path d="M246.431 33.4161C246.431 36.9154 243.594 39.7522 240.095 39.7522V39.7522C236.596 39.7522 233.759 36.9154 233.759 33.4161V32.9957C233.759 29.1671 236.504 26.2393 240.095 26.2393V26.2393C243.594 26.2393 246.431 29.076 246.431 32.5753V33.4161Z" fill="black"/>
<path d="M252.395 39.7522V39.7522C248.895 39.7522 246.059 36.9154 246.059 33.4161V32.5753C246.059 29.076 248.895 26.2393 252.395 26.2393V26.2393C255.985 26.2393 258.731 29.1671 258.731 32.9957C258.731 36.8244 255.985 39.7522 252.395 39.7522Z" fill="black"/>
<path d="M277.001 39.7522C280.5 39.7522 283.337 36.7272 283.337 32.9957C283.337 29.2642 280.5 26.2393 277.001 26.2393C273.502 26.2393 270.665 29.2642 270.665 32.9957C270.665 36.7272 273.502 39.7522 277.001 39.7522Z" fill="black"/>
<path d="M135.7 46.5343V45.6935C135.7 42.1942 132.864 39.3574 129.364 39.3574C125.865 39.3574 123.028 42.1942 123.028 45.6935V46.5343C123.028 50.0336 125.865 52.8703 129.364 52.8703C132.864 52.8703 135.7 50.0336 135.7 46.5343Z" fill="black"/>
<path d="M148.005 46.5343V45.6935C148.005 42.1942 145.168 39.3574 141.669 39.3574C138.17 39.3574 135.333 42.1942 135.333 45.6935V46.5343C135.333 50.0336 138.17 52.8703 141.669 52.8703C145.168 52.8703 148.005 50.0336 148.005 46.5343Z" fill="black"/>
<path d="M153.971 52.8703V52.8703C150.472 52.8703 147.635 50.0336 147.635 46.5343V45.6935C147.635 42.1942 150.472 39.3574 153.971 39.3574V39.3574C157.47 39.3574 160.307 42.1942 160.307 45.6935V46.1139C160.307 49.9425 157.561 52.8703 153.971 52.8703Z" fill="black"/>
<path d="M178.577 52.8703C182.077 52.8703 184.913 49.8454 184.913 46.1139C184.913 42.3824 182.077 39.3574 178.577 39.3574C175.078 39.3574 172.241 42.3824 172.241 46.1139C172.241 49.8454 175.078 52.8703 178.577 52.8703Z" fill="black"/>
<path d="M209.52 46.5343C209.52 50.0336 206.683 52.8703 203.184 52.8703V52.8703C199.593 52.8703 196.848 49.9425 196.848 46.1139V45.6935C196.848 42.1942 199.684 39.3574 203.184 39.3574V39.3574C206.683 39.3574 209.52 42.1942 209.52 45.6935V46.5343Z" fill="black"/>
<path d="M215.486 52.8703V52.8703C211.987 52.8703 209.15 50.0336 209.15 46.5343V45.6935C209.15 42.1942 211.987 39.3574 215.486 39.3574V39.3574C219.077 39.3574 221.823 42.2852 221.823 46.1139C221.823 49.9425 219.077 52.8703 215.486 52.8703Z" fill="black"/>
<path d="M240.095 52.8703C236.504 52.8703 233.759 49.9425 233.759 46.1139V45.6935C233.759 42.1942 236.596 39.3574 240.095 39.3574V39.3574C243.594 39.3574 246.431 42.1942 246.431 45.6935V46.1139C246.431 49.9425 243.685 52.8703 240.095 52.8703Z" fill="black"/>
<path d="M271.035 46.5343C271.035 50.0336 268.199 52.8703 264.699 52.8703V52.8703C261.2 52.8703 258.363 50.0336 258.363 46.5343V46.1139C258.363 42.2852 261.109 39.3574 264.699 39.3574C268.29 39.3574 271.035 42.2852 271.035 46.1139V46.5343Z" fill="black"/>
<path d="M129.364 65.9875C125.774 65.9875 123.028 63.0597 123.028 59.2311V58.8107C123.028 55.3114 125.865 52.4746 129.364 52.4746V52.4746C132.864 52.4746 135.7 55.3114 135.7 58.8107V59.2311C135.7 63.0597 132.955 65.9875 129.364 65.9875Z" fill="black"/>
<path d="M234.126 59.6515C234.126 63.1508 231.289 65.9875 227.79 65.9875V65.9875C224.291 65.9875 221.454 63.1508 221.454 59.6515V59.2311C221.454 55.4024 224.2 52.4746 227.79 52.4746C231.381 52.4746 234.126 55.4024 234.126 59.2311V59.6515Z" fill="black"/>
<path d="M258.731 59.6515C258.731 63.1508 255.894 65.9875 252.395 65.9875V65.9875C248.804 65.9875 246.059 63.0597 246.059 59.2311C246.059 55.4024 248.804 52.4746 252.395 52.4746V52.4746C255.894 52.4746 258.731 55.3114 258.731 58.8107V59.6515Z" fill="black"/>
<path d="M271.035 59.6515V58.8107C271.035 55.3114 268.199 52.4746 264.699 52.4746C261.2 52.4746 258.363 55.3114 258.363 58.8107V59.6515C258.363 63.1508 261.2 65.9875 264.699 65.9875C268.199 65.9875 271.035 63.1508 271.035 59.6515Z" fill="black"/>
<path d="M277.001 65.9875V65.9875C273.502 65.9875 270.665 63.1508 270.665 59.6515V58.8107C270.665 55.3114 273.502 52.4746 277.001 52.4746V52.4746C280.592 52.4746 283.337 55.4024 283.337 59.2311C283.337 63.0597 280.592 65.9875 277.001 65.9875Z" fill="black"/>
<path d="M160.307 72.7765C160.307 76.2758 157.47 79.1125 153.971 79.1125V79.1125C150.472 79.1125 147.635 76.2758 147.635 72.7765V72.3561C147.635 68.5274 150.38 65.5996 153.971 65.5996V65.5996C157.47 65.5996 160.307 68.4364 160.307 71.9357V72.7765Z" fill="black"/>
<path d="M172.612 72.7765C172.612 76.2758 169.775 79.1125 166.276 79.1125V79.1125C162.776 79.1125 159.939 76.2758 159.939 72.7765V71.9357C159.939 68.4364 162.776 65.5996 166.276 65.5996V65.5996C169.866 65.5996 172.612 68.5274 172.612 72.3561V72.7765Z" fill="black"/>
<path d="M197.218 72.7765C197.218 76.2758 194.381 79.1125 190.882 79.1125V79.1125C187.292 79.1125 184.546 76.1847 184.546 72.3561C184.546 68.5274 187.292 65.5996 190.882 65.5996V65.5996C194.381 65.5996 197.218 68.4364 197.218 71.9357V72.7765Z" fill="black"/>
<path d="M209.52 72.7765V71.9357C209.52 68.4364 206.683 65.5996 203.184 65.5996C199.684 65.5996 196.848 68.4364 196.848 71.9357V72.7765C196.848 76.2758 199.684 79.1125 203.184 79.1125C206.683 79.1125 209.52 76.2758 209.52 72.7765Z" fill="black"/>
<path d="M221.823 72.7765V71.9357C221.823 68.4364 218.986 65.5996 215.486 65.5996C211.987 65.5996 209.15 68.4364 209.15 71.9357V72.7765C209.15 76.2758 211.987 79.1125 215.486 79.1125C218.986 79.1125 221.823 76.2758 221.823 72.7765Z" fill="black"/>
<path d="M234.126 72.7765V71.9357C234.126 68.4364 231.289 65.5996 227.79 65.5996C224.291 65.5996 221.454 68.4364 221.454 71.9357V72.7765C221.454 76.2758 224.291 79.1125 227.79 79.1125C231.289 79.1125 234.126 76.2758 234.126 72.7765Z" fill="black"/>
<path d="M240.095 79.1125V79.1125C236.596 79.1125 233.759 76.2758 233.759 72.7765V71.9357C233.759 68.4364 236.596 65.5996 240.095 65.5996V65.5996C243.685 65.5996 246.431 68.5274 246.431 72.3561C246.431 76.1847 243.685 79.1125 240.095 79.1125Z" fill="black"/>
<path d="M271.035 72.7765V71.9357C271.035 68.4364 268.199 65.5996 264.699 65.5996C261.2 65.5996 258.363 68.4364 258.363 71.9357V72.7765C258.363 76.2758 261.2 79.1125 264.699 79.1125C268.199 79.1125 271.035 76.2758 271.035 72.7765Z" fill="black"/>
<path d="M160.307 85.8946C160.307 89.394 157.47 92.2307 153.971 92.2307V92.2307C150.38 92.2307 147.635 89.3029 147.635 85.4742V85.0538C147.635 81.5545 150.472 78.7178 153.971 78.7178V78.7178C157.47 78.7178 160.307 81.5545 160.307 85.0538V85.8946Z" fill="black"/>
<path d="M172.612 85.8946V85.0538C172.612 81.5545 169.775 78.7178 166.276 78.7178C162.776 78.7178 159.939 81.5545 159.939 85.0538V85.8946C159.939 89.3939 162.776 92.2307 166.276 92.2307C169.775 92.2307 172.612 89.394 172.612 85.8946Z" fill="black"/>
<path d="M184.913 85.8946C184.913 89.394 182.077 92.2307 178.577 92.2307V92.2307C175.078 92.2307 172.241 89.3939 172.241 85.8946V85.0538C172.241 81.5545 175.078 78.7178 178.577 78.7178V78.7178C182.168 78.7178 184.913 81.6456 184.913 85.4742V85.8946Z" fill="black"/>
<path d="M234.126 85.8946V85.0538C234.126 81.5545 231.289 78.7178 227.79 78.7178C224.291 78.7178 221.454 81.5545 221.454 85.0538V85.8946C221.454 89.3939 224.291 92.2307 227.79 92.2307C231.289 92.2307 234.126 89.394 234.126 85.8946Z" fill="black"/>
<path d="M258.731 85.8946C258.731 89.394 255.894 92.2307 252.395 92.2307V92.2307C248.895 92.2307 246.059 89.394 246.059 85.8946V85.4742C246.059 81.6456 248.804 78.7178 252.395 78.7178V78.7178C255.894 78.7178 258.731 81.5545 258.731 85.0538V85.8946Z" fill="black"/>
<path d="M264.699 92.2307V92.2307C261.2 92.2307 258.363 89.3939 258.363 85.8946V85.0538C258.363 81.5545 261.2 78.7178 264.699 78.7178V78.7178C268.199 78.7178 271.035 81.5545 271.035 85.0538V85.4742C271.035 89.3029 268.29 92.2307 264.699 92.2307Z" fill="black"/>
<path d="M135.7 99.0128C135.7 102.512 132.864 105.349 129.364 105.349V105.349C125.865 105.349 123.028 102.512 123.028 99.0128V98.5924C123.028 94.7637 125.774 91.8359 129.364 91.8359C132.955 91.8359 135.7 94.7637 135.7 98.5924V99.0128Z" fill="black"/>
<path d="M184.913 99.0128V98.172C184.913 94.6727 182.077 91.8359 178.577 91.8359C175.078 91.8359 172.241 94.6727 172.241 98.172V99.0128C172.241 102.512 175.078 105.349 178.577 105.349C182.077 105.349 184.913 102.512 184.913 99.0128Z" fill="black"/>
<path d="M221.823 99.0128C221.823 102.512 218.986 105.349 215.486 105.349V105.349C211.896 105.349 209.15 102.421 209.15 98.5924C209.15 94.7637 211.896 91.8359 215.486 91.8359V91.8359C218.986 91.8359 221.823 94.6727 221.823 98.172V99.0128Z" fill="black"/>
<path d="M234.126 99.0128V98.172C234.126 94.6727 231.289 91.8359 227.79 91.8359C224.291 91.8359 221.454 94.6727 221.454 98.172V99.0128C221.454 102.512 224.291 105.349 227.79 105.349C231.289 105.349 234.126 102.512 234.126 99.0128Z" fill="black"/>
<path d="M258.731 99.0128V98.172C258.731 94.6727 255.894 91.8359 252.395 91.8359C248.895 91.8359 246.059 94.6727 246.059 98.172V99.0128C246.059 102.512 248.895 105.349 252.395 105.349C255.894 105.349 258.731 102.512 258.731 99.0128Z" fill="black"/>
<path d="M135.7 112.131V111.29C135.7 107.791 132.864 104.954 129.364 104.954C125.865 104.954 123.028 107.791 123.028 111.29V112.131C123.028 115.63 125.865 118.467 129.364 118.467C132.864 118.467 135.7 115.63 135.7 112.131Z" fill="black"/>
<path d="M160.307 112.131C160.307 115.63 157.47 118.467 153.971 118.467V118.467C150.472 118.467 147.635 115.63 147.635 112.131V111.711C147.635 107.882 150.38 104.954 153.971 104.954C157.561 104.954 160.307 107.882 160.307 111.711V112.131Z" fill="black"/>
<path d="M184.913 112.131V111.29C184.913 107.791 182.077 104.954 178.577 104.954C175.078 104.954 172.241 107.791 172.241 111.29V112.131C172.241 115.63 175.078 118.467 178.577 118.467C182.077 118.467 184.913 115.63 184.913 112.131Z" fill="black"/>
<path d="M209.52 112.131C209.52 115.63 206.683 118.467 203.184 118.467V118.467C199.684 118.467 196.848 115.63 196.848 112.131V111.711C196.848 107.882 199.593 104.954 203.184 104.954C206.774 104.954 209.52 107.882 209.52 111.711V112.131Z" fill="black"/>
<path d="M234.126 112.131V111.29C234.126 107.791 231.289 104.954 227.79 104.954C224.291 104.954 221.454 107.791 221.454 111.29V112.131C221.454 115.63 224.291 118.467 227.79 118.467C231.289 118.467 234.126 115.63 234.126 112.131Z" fill="black"/>
<path d="M252.395 118.467C248.804 118.467 246.059 115.539 246.059 111.711V111.29C246.059 107.791 248.895 104.954 252.395 104.954V104.954C255.894 104.954 258.731 107.791 258.731 111.29V111.711C258.731 115.539 255.985 118.467 252.395 118.467Z" fill="black"/>
<path d="M277.001 118.467C280.5 118.467 283.337 115.442 283.337 111.711C283.337 107.979 280.5 104.954 277.001 104.954C273.502 104.954 270.665 107.979 270.665 111.711C270.665 115.442 273.502 118.467 277.001 118.467Z" fill="black"/>
<path d="M135.7 125.253V124.412C135.7 120.913 132.864 118.076 129.364 118.076C125.865 118.076 123.028 120.913 123.028 124.412V125.253C123.028 128.752 125.865 131.589 129.364 131.589C132.864 131.589 135.7 128.752 135.7 125.253Z" fill="black"/>
<path d="M160.307 125.253V124.412C160.307 120.913 157.47 118.076 153.971 118.076C150.472 118.076 147.635 120.913 147.635 124.412V125.253C147.635 128.752 150.472 131.589 153.971 131.589C157.47 131.589 160.307 128.752 160.307 125.253Z" fill="black"/>
<path d="M172.612 125.253V124.412C172.612 120.913 169.775 118.076 166.276 118.076C162.776 118.076 159.939 120.913 159.939 124.412V125.253C159.939 128.752 162.776 131.589 166.276 131.589C169.775 131.589 172.612 128.752 172.612 125.253Z" fill="black"/>
<path d="M184.913 125.253V124.412C184.913 120.913 182.077 118.076 178.577 118.076C175.078 118.076 172.241 120.913 172.241 124.412V125.253C172.241 128.752 175.078 131.589 178.577 131.589C182.077 131.589 184.913 128.752 184.913 125.253Z" fill="black"/>
<path d="M197.218 125.253V124.412C197.218 120.913 194.381 118.076 190.882 118.076C187.383 118.076 184.546 120.913 184.546 124.412V125.253C184.546 128.752 187.383 131.589 190.882 131.589C194.381 131.589 197.218 128.752 197.218 125.253Z" fill="black"/>
<path d="M209.52 125.253V124.412C209.52 120.913 206.683 118.076 203.184 118.076C199.684 118.076 196.848 120.913 196.848 124.412V125.253C196.848 128.752 199.684 131.589 203.184 131.589C206.683 131.589 209.52 128.752 209.52 125.253Z" fill="black"/>
<path d="M221.823 125.253V124.412C221.823 120.913 218.986 118.076 215.486 118.076C211.987 118.076 209.15 120.913 209.15 124.412V125.253C209.15 128.752 211.987 131.589 215.486 131.589C218.986 131.589 221.823 128.752 221.823 125.253Z" fill="black"/>
<path d="M227.79 131.589V131.589C224.291 131.589 221.454 128.752 221.454 125.253V124.412C221.454 120.913 224.291 118.076 227.79 118.076V118.076C231.289 118.076 234.126 120.913 234.126 124.412V124.833C234.126 128.661 231.381 131.589 227.79 131.589Z" fill="black"/>
<path d="M264.699 131.589C268.199 131.589 271.035 128.564 271.035 124.833C271.035 121.101 268.199 118.076 264.699 118.076C261.2 118.076 258.363 121.101 258.363 124.833C258.363 128.564 261.2 131.589 264.699 131.589Z" fill="black"/>
<path d="M61.8831 138.371C61.8831 141.871 59.0463 144.707 55.547 144.707V144.707C52.0477 144.707 49.2109 141.871 49.2109 138.371V137.951C49.2109 134.122 51.9566 131.194 55.547 131.194V131.194C59.0463 131.194 61.8831 134.031 61.8831 137.53V138.371Z" fill="black"/>
<path d="M74.1858 138.371V137.53C74.1858 134.031 71.349 131.194 67.8497 131.194C64.3504 131.194 61.5137 134.031 61.5137 137.53V138.371C61.5137 141.871 64.3504 144.707 67.8497 144.707C71.349 144.707 74.1858 141.871 74.1858 138.371Z" fill="black"/>
<path d="M80.1534 144.707V144.707C76.6541 144.707 73.8174 141.871 73.8174 138.371V137.53C73.8174 134.031 76.6541 131.194 80.1534 131.194V131.194C83.7439 131.194 86.4895 134.122 86.4895 137.951C86.4895 141.779 83.7439 144.707 80.1534 144.707Z" fill="black"/>
<path d="M104.762 144.707C108.261 144.707 111.098 141.682 111.098 137.951C111.098 134.219 108.261 131.194 104.762 131.194C101.263 131.194 98.4258 134.219 98.4258 137.951C98.4258 141.682 101.263 144.707 104.762 144.707Z" fill="black"/>
<path d="M135.7 138.371V137.53C135.7 134.031 132.864 131.194 129.364 131.194C125.865 131.194 123.028 134.031 123.028 137.53V138.371C123.028 141.871 125.865 144.707 129.364 144.707C132.864 144.707 135.7 141.871 135.7 138.371Z" fill="black"/>
<path d="M153.971 144.707C150.38 144.707 147.635 141.779 147.635 137.951V137.53C147.635 134.031 150.472 131.194 153.971 131.194V131.194C157.47 131.194 160.307 134.031 160.307 137.53V137.951C160.307 141.779 157.561 144.707 153.971 144.707Z" fill="black"/>
<path d="M184.913 138.371V137.53C184.913 134.031 182.077 131.194 178.577 131.194C175.078 131.194 172.241 134.031 172.241 137.53V138.371C172.241 141.871 175.078 144.707 178.577 144.707C182.077 144.707 184.913 141.871 184.913 138.371Z" fill="black"/>
<path d="M197.218 138.371V137.53C197.218 134.031 194.381 131.194 190.882 131.194C187.383 131.194 184.546 134.031 184.546 137.53V138.371C184.546 141.871 187.383 144.707 190.882 144.707C194.381 144.707 197.218 141.871 197.218 138.371Z" fill="black"/>
<path d="M209.52 138.371V137.53C209.52 134.031 206.683 131.194 203.184 131.194C199.684 131.194 196.848 134.031 196.848 137.53V138.371C196.848 141.871 199.684 144.707 203.184 144.707C206.683 144.707 209.52 141.871 209.52 138.371Z" fill="black"/>
<path d="M215.486 144.707V144.707C211.987 144.707 209.15 141.871 209.15 138.371V137.53C209.15 134.031 211.987 131.194 215.486 131.194V131.194C218.986 131.194 221.823 134.031 221.823 137.53V137.951C221.823 141.779 219.077 144.707 215.486 144.707Z" fill="black"/>
<path d="M252.395 144.707C255.894 144.707 258.731 141.682 258.731 137.951C258.731 134.219 255.894 131.194 252.395 131.194C248.895 131.194 246.059 134.219 246.059 137.951C246.059 141.682 248.895 144.707 252.395 144.707Z" fill="black"/>
<path d="M295.642 138.371C295.642 141.871 292.805 144.707 289.306 144.707V144.707C285.806 144.707 282.97 141.871 282.97 138.371V137.951C282.97 134.122 285.715 131.194 289.306 131.194V131.194C292.805 131.194 295.642 134.031 295.642 137.53V138.371Z" fill="black"/>
<path d="M307.946 138.371V137.53C307.946 134.031 305.109 131.194 301.609 131.194C298.11 131.194 295.273 134.031 295.273 137.53V138.371C295.273 141.871 298.11 144.707 301.609 144.707C305.109 144.707 307.946 141.871 307.946 138.371Z" fill="black"/>
<path d="M320.246 138.371C320.246 141.871 317.41 144.707 313.91 144.707V144.707C310.411 144.707 307.574 141.871 307.574 138.371V137.53C307.574 134.031 310.411 131.194 313.91 131.194V131.194C317.501 131.194 320.246 134.122 320.246 137.951V138.371Z" fill="black"/>
<path d="M357.156 138.371C357.156 141.871 354.32 144.707 350.82 144.707V144.707C347.321 144.707 344.484 141.871 344.484 138.371V137.951C344.484 134.122 347.23 131.194 350.82 131.194V131.194C354.32 131.194 357.156 134.031 357.156 137.53V138.371Z" fill="black"/>
<path d="M369.463 138.371V137.53C369.463 134.031 366.626 131.194 363.127 131.194C359.628 131.194 356.791 134.031 356.791 137.53V138.371C356.791 141.871 359.628 144.707 363.127 144.707C366.626 144.707 369.463 141.871 369.463 138.371Z" fill="black"/>
<path d="M381.762 138.371C381.762 141.871 378.925 144.707 375.426 144.707V144.707C371.927 144.707 369.09 141.871 369.09 138.371V137.53C369.09 134.031 371.927 131.194 375.426 131.194V131.194C379.016 131.194 381.762 134.122 381.762 137.951V138.371Z" fill="black"/>
<path d="M61.8831 151.488V150.648C61.8831 147.148 59.0463 144.312 55.547 144.312C52.0477 144.312 49.2109 147.148 49.2109 150.648V151.488C49.2109 154.988 52.0477 157.824 55.547 157.824C59.0463 157.824 61.8831 154.988 61.8831 151.488Z" fill="black"/>
<path d="M98.7922 151.488C98.7922 154.988 95.9555 157.824 92.4562 157.824V157.824C88.9569 157.824 86.1201 154.988 86.1201 151.488V151.068C86.1201 147.239 88.8657 144.312 92.4562 144.312C96.0466 144.312 98.7922 147.239 98.7922 151.068V151.488Z" fill="black"/>
<path d="M135.7 151.488V150.648C135.7 147.148 132.864 144.312 129.364 144.312C125.865 144.312 123.028 147.148 123.028 150.648V151.488C123.028 154.988 125.865 157.824 129.364 157.824C132.864 157.824 135.7 154.988 135.7 151.488Z" fill="black"/>
<path d="M141.669 157.824V157.824C138.17 157.824 135.333 154.988 135.333 151.488V150.648C135.333 147.148 138.17 144.312 141.669 144.312V144.312C145.26 144.312 148.005 147.239 148.005 151.068C148.005 154.897 145.26 157.824 141.669 157.824Z" fill="black"/>
<path d="M178.577 157.824C174.987 157.824 172.241 154.897 172.241 151.068V150.648C172.241 147.148 175.078 144.312 178.577 144.312V144.312C182.077 144.312 184.913 147.148 184.913 150.648V151.068C184.913 154.897 182.168 157.824 178.577 157.824Z" fill="black"/>
<path d="M240.095 157.824C243.594 157.824 246.431 154.799 246.431 151.068C246.431 147.336 243.594 144.312 240.095 144.312C236.596 144.312 233.759 147.336 233.759 151.068C233.759 154.799 236.596 157.824 240.095 157.824Z" fill="black"/>
<path d="M295.642 151.488V150.648C295.642 147.148 292.805 144.312 289.306 144.312C285.806 144.312 282.97 147.148 282.97 150.648V151.488C282.97 154.988 285.806 157.824 289.306 157.824C292.805 157.824 295.642 154.988 295.642 151.488Z" fill="black"/>
<path d="M307.946 151.488V150.648C307.946 147.148 305.109 144.312 301.609 144.312C298.11 144.312 295.273 147.148 295.273 150.648V151.488C295.273 154.988 298.11 157.824 301.609 157.824C305.109 157.824 307.946 154.988 307.946 151.488Z" fill="black"/>
<path d="M320.246 151.488V150.648C320.246 147.148 317.41 144.312 313.91 144.312C310.411 144.312 307.574 147.148 307.574 150.648V151.488C307.574 154.988 310.411 157.824 313.91 157.824C317.41 157.824 320.246 154.988 320.246 151.488Z" fill="black"/>
<path d="M332.55 151.488V150.648C332.55 147.148 329.713 144.312 326.214 144.312C322.715 144.312 319.878 147.148 319.878 150.648V151.488C319.878 154.988 322.715 157.824 326.214 157.824C329.713 157.824 332.55 154.988 332.55 151.488Z" fill="black"/>
<path d="M344.853 151.488V150.648C344.853 147.148 342.016 144.312 338.517 144.312C335.017 144.312 332.181 147.148 332.181 150.648V151.488C332.181 154.988 335.017 157.824 338.517 157.824C342.016 157.824 344.853 154.988 344.853 151.488Z" fill="black"/>
<path d="M357.156 151.488V150.648C357.156 147.148 354.32 144.312 350.82 144.312C347.321 144.312 344.484 147.148 344.484 150.648V151.488C344.484 154.988 347.321 157.824 350.82 157.824C354.32 157.824 357.156 154.988 357.156 151.488Z" fill="black"/>
<path d="M375.426 157.824C371.835 157.824 369.09 154.897 369.09 151.068V150.648C369.09 147.148 371.927 144.312 375.426 144.312V144.312C378.925 144.312 381.762 147.148 381.762 150.648V151.068C381.762 154.897 379.016 157.824 375.426 157.824Z" fill="black"/>
<path d="M49.5823 164.609C49.5823 168.109 46.7455 170.946 43.2462 170.946V170.946C39.6558 170.946 36.9102 168.018 36.9102 164.189C36.9102 160.36 39.6558 157.433 43.2462 157.433V157.433C46.7455 157.433 49.5823 160.269 49.5823 163.769V164.609Z" fill="black"/>
<path d="M61.8831 164.609V163.769C61.8831 160.269 59.0463 157.433 55.547 157.433C52.0477 157.433 49.2109 160.269 49.2109 163.769V164.609C49.2109 168.109 52.0477 170.946 55.547 170.946C59.0463 170.946 61.8831 168.109 61.8831 164.609Z" fill="black"/>
<path d="M86.4895 164.609C86.4895 168.109 83.6528 170.946 80.1534 170.946V170.946C76.563 170.946 73.8174 168.018 73.8174 164.189C73.8174 160.36 76.563 157.433 80.1534 157.433V157.433C83.6528 157.433 86.4895 160.269 86.4895 163.769V164.609Z" fill="black"/>
<path d="M98.7922 164.609V163.769C98.7922 160.269 95.9555 157.433 92.4562 157.433C88.9569 157.433 86.1201 160.269 86.1201 163.769V164.609C86.1201 168.109 88.9569 170.946 92.4562 170.946C95.9555 170.946 98.7922 168.109 98.7922 164.609Z" fill="black"/>
<path d="M111.098 164.609V163.769C111.098 160.269 108.261 157.433 104.762 157.433C101.263 157.433 98.4258 160.269 98.4258 163.769V164.609C98.4258 168.109 101.263 170.946 104.762 170.946C108.261 170.946 111.098 168.109 111.098 164.609Z" fill="black"/>
<path d="M123.399 164.609V163.769C123.399 160.269 120.562 157.433 117.063 157.433C113.563 157.433 110.727 160.269 110.727 163.769V164.609C110.727 168.109 113.563 170.946 117.063 170.946C120.562 170.946 123.399 168.109 123.399 164.609Z" fill="black"/>
<path d="M129.364 170.946V170.946C125.865 170.946 123.028 168.109 123.028 164.609V163.769C123.028 160.269 125.865 157.433 129.364 157.433V157.433C132.864 157.433 135.7 160.269 135.7 163.769V164.189C135.7 168.018 132.955 170.946 129.364 170.946Z" fill="black"/>
<path d="M160.307 164.609C160.307 168.109 157.47 170.946 153.971 170.946V170.946C150.472 170.946 147.635 168.109 147.635 164.609V164.189C147.635 160.36 150.38 157.433 153.971 157.433V157.433C157.47 157.433 160.307 160.269 160.307 163.769V164.609Z" fill="black"/>
<path d="M172.612 164.609C172.612 168.109 169.775 170.946 166.276 170.946V170.946C162.776 170.946 159.939 168.109 159.939 164.609V163.769C159.939 160.269 162.776 157.433 166.276 157.433V157.433C169.866 157.433 172.612 160.36 172.612 164.189V164.609Z" fill="black"/>
<path d="M197.218 164.609C197.218 168.109 194.381 170.946 190.882 170.946V170.946C187.292 170.946 184.546 168.018 184.546 164.189C184.546 160.36 187.292 157.433 190.882 157.433V157.433C194.381 157.433 197.218 160.269 197.218 163.769V164.609Z" fill="black"/>
<path d="M209.52 164.609V163.769C209.52 160.269 206.683 157.433 203.184 157.433C199.684 157.433 196.848 160.269 196.848 163.769V164.609C196.848 168.109 199.684 170.946 203.184 170.946C206.683 170.946 209.52 168.109 209.52 164.609Z" fill="black"/>
<path d="M221.823 164.609V163.769C221.823 160.269 218.986 157.433 215.486 157.433C211.987 157.433 209.15 160.269 209.15 163.769V164.609C209.15 168.109 211.987 170.946 215.486 170.946C218.986 170.946 221.823 168.109 221.823 164.609Z" fill="black"/>
<path d="M234.126 164.609C234.126 168.109 231.289 170.946 227.79 170.946V170.946C224.291 170.946 221.454 168.109 221.454 164.609V163.769C221.454 160.269 224.291 157.433 227.79 157.433V157.433C231.381 157.433 234.126 160.36 234.126 164.189V164.609Z" fill="black"/>
<path d="M283.337 164.609C283.337 168.109 280.5 170.946 277.001 170.946V170.946C273.411 170.946 270.665 168.018 270.665 164.189C270.665 160.36 273.411 157.433 277.001 157.433V157.433C280.5 157.433 283.337 160.269 283.337 163.769V164.609Z" fill="black"/>
<path d="M295.642 164.609V163.769C295.642 160.269 292.805 157.433 289.306 157.433C285.806 157.433 282.97 160.269 282.97 163.769V164.609C282.97 168.109 285.806 170.946 289.306 170.946C292.805 170.946 295.642 168.109 295.642 164.609Z" fill="black"/>
<path d="M307.946 164.609V163.769C307.946 160.269 305.109 157.433 301.609 157.433C298.11 157.433 295.273 160.269 295.273 163.769V164.609C295.273 168.109 298.11 170.946 301.609 170.946C305.109 170.946 307.946 168.109 307.946 164.609Z" fill="black"/>
<path d="M313.91 170.946V170.946C310.411 170.946 307.574 168.109 307.574 164.609V163.769C307.574 160.269 310.411 157.433 313.91 157.433V157.433C317.41 157.433 320.246 160.269 320.246 163.769V164.189C320.246 168.018 317.501 170.946 313.91 170.946Z" fill="black"/>
<path d="M350.82 170.946C347.23 170.946 344.484 168.018 344.484 164.189V163.769C344.484 160.269 347.321 157.433 350.82 157.433V157.433C354.32 157.433 357.156 160.269 357.156 163.769V164.189C357.156 168.018 354.411 170.946 350.82 170.946Z" fill="black"/>
<path d="M61.8831 177.732C61.8831 181.231 59.0463 184.068 55.547 184.068V184.068C51.9566 184.068 49.2109 181.14 49.2109 177.311V176.891C49.2109 173.391 52.0477 170.555 55.547 170.555V170.555C59.0463 170.555 61.8831 173.391 61.8831 176.891V177.732Z" fill="black"/>
<path d="M74.1858 177.732C74.1858 181.231 71.349 184.068 67.8497 184.068V184.068C64.3504 184.068 61.5137 181.231 61.5137 177.732V176.891C61.5137 173.391 64.3504 170.555 67.8497 170.555V170.555C71.4402 170.555 74.1858 173.482 74.1858 177.311V177.732Z" fill="black"/>
<path d="M148.005 177.732C148.005 181.231 145.168 184.068 141.669 184.068V184.068C138.079 184.068 135.333 181.14 135.333 177.311C135.333 173.482 138.079 170.555 141.669 170.555V170.555C145.168 170.555 148.005 173.391 148.005 176.891V177.732Z" fill="black"/>
<path d="M160.307 177.732V176.891C160.307 173.391 157.47 170.555 153.971 170.555C150.472 170.555 147.635 173.391 147.635 176.891V177.732C147.635 181.231 150.472 184.068 153.971 184.068C157.47 184.068 160.307 181.231 160.307 177.732Z" fill="black"/>
<path d="M172.612 177.732V176.891C172.612 173.391 169.775 170.555 166.276 170.555C162.776 170.555 159.939 173.391 159.939 176.891V177.732C159.939 181.231 162.776 184.068 166.276 184.068C169.775 184.068 172.612 181.231 172.612 177.732Z" fill="black"/>
<path d="M178.577 184.068V184.068C175.078 184.068 172.241 181.231 172.241 177.732V176.891C172.241 173.391 175.078 170.555 178.577 170.555V170.555C182.168 170.555 184.913 173.482 184.913 177.311C184.913 181.14 182.168 184.068 178.577 184.068Z" fill="black"/>
<path d="M221.823 177.732V176.891C221.823 173.391 218.986 170.555 215.486 170.555C211.987 170.555 209.15 173.391 209.15 176.891V177.732C209.15 181.231 211.987 184.068 215.486 184.068C218.986 184.068 221.823 181.231 221.823 177.732Z" fill="black"/>
<path d="M234.126 177.732V176.891C234.126 173.391 231.289 170.555 227.79 170.555C224.291 170.555 221.454 173.391 221.454 176.891V177.732C221.454 181.231 224.291 184.068 227.79 184.068C231.289 184.068 234.126 181.231 234.126 177.732Z" fill="black"/>
<path d="M240.095 184.068V184.068C236.596 184.068 233.759 181.231 233.759 177.732V176.891C233.759 173.391 236.596 170.555 240.095 170.555V170.555C243.685 170.555 246.431 173.482 246.431 177.311C246.431 181.14 243.685 184.068 240.095 184.068Z" fill="black"/>
<path d="M264.699 184.068C268.199 184.068 271.035 181.043 271.035 177.311C271.035 173.58 268.199 170.555 264.699 170.555C261.2 170.555 258.363 173.58 258.363 177.311C258.363 181.043 261.2 184.068 264.699 184.068Z" fill="black"/>
<path d="M295.642 177.732V176.891C295.642 173.391 292.805 170.555 289.306 170.555C285.806 170.555 282.97 173.391 282.97 176.891V177.732C282.97 181.231 285.806 184.068 289.306 184.068C292.805 184.068 295.642 181.231 295.642 177.732Z" fill="black"/>
<path d="M301.609 184.068V184.068C298.11 184.068 295.273 181.231 295.273 177.732V176.891C295.273 173.391 298.11 170.555 301.609 170.555V170.555C305.109 170.555 307.946 173.391 307.946 176.891V177.311C307.946 181.14 305.2 184.068 301.609 184.068Z" fill="black"/>
<path d="M332.55 177.732C332.55 181.231 329.713 184.068 326.214 184.068V184.068C322.624 184.068 319.878 181.14 319.878 177.311C319.878 173.482 322.624 170.555 326.214 170.555V170.555C329.713 170.555 332.55 173.391 332.55 176.891V177.732Z" fill="black"/>
<path d="M338.517 184.068V184.068C335.017 184.068 332.181 181.231 332.181 177.732V176.891C332.181 173.391 335.017 170.555 338.517 170.555V170.555C342.107 170.555 344.853 173.482 344.853 177.311C344.853 181.14 342.107 184.068 338.517 184.068Z" fill="black"/>
<path d="M369.463 177.732C369.463 181.231 366.626 184.068 363.127 184.068V184.068C359.628 184.068 356.791 181.231 356.791 177.732V177.311C356.791 173.482 359.537 170.555 363.127 170.555C366.718 170.555 369.463 173.482 369.463 177.311V177.732Z" fill="black"/>
<path d="M43.2462 197.184C46.7455 197.184 49.5823 194.159 49.5823 190.427C49.5823 186.696 46.7455 183.671 43.2462 183.671C39.7469 183.671 36.9102 186.696 36.9102 190.427C36.9102 194.159 39.7469 197.184 43.2462 197.184Z" fill="black"/>
<path d="M74.1858 190.848V190.007C74.1858 186.508 71.349 183.671 67.8497 183.671C64.3504 183.671 61.5137 186.508 61.5137 190.007V190.848C61.5137 194.347 64.3504 197.184 67.8497 197.184C71.349 197.184 74.1858 194.347 74.1858 190.848Z" fill="black"/>
<path d="M86.4895 190.848V190.007C86.4895 186.508 83.6528 183.671 80.1534 183.671C76.6541 183.671 73.8174 186.508 73.8174 190.007V190.848C73.8174 194.347 76.6541 197.184 80.1534 197.184C83.6528 197.184 86.4895 194.347 86.4895 190.848Z" fill="black"/>
<path d="M98.7922 190.848V190.007C98.7922 186.508 95.9555 183.671 92.4562 183.671C88.9569 183.671 86.1201 186.508 86.1201 190.007V190.848C86.1201 194.347 88.9569 197.184 92.4562 197.184C95.9555 197.184 98.7922 194.347 98.7922 190.848Z" fill="black"/>
<path d="M111.098 190.848V190.007C111.098 186.508 108.261 183.671 104.762 183.671C101.263 183.671 98.4258 186.508 98.4258 190.007V190.848C98.4258 194.347 101.263 197.184 104.762 197.184C108.261 197.184 111.098 194.347 111.098 190.848Z" fill="black"/>
<path d="M123.399 190.848V190.007C123.399 186.508 120.562 183.671 117.063 183.671C113.563 183.671 110.727 186.508 110.727 190.007V190.848C110.727 194.347 113.563 197.184 117.063 197.184C120.562 197.184 123.399 194.347 123.399 190.848Z" fill="black"/>
<path d="M129.364 197.184V197.184C125.865 197.184 123.028 194.347 123.028 190.848V190.007C123.028 186.508 125.865 183.671 129.364 183.671V183.671C132.955 183.671 135.7 186.599 135.7 190.427C135.7 194.256 132.955 197.184 129.364 197.184Z" fill="black"/>
<path d="M166.276 197.184C162.685 197.184 159.939 194.256 159.939 190.427V190.007C159.939 186.508 162.776 183.671 166.276 183.671V183.671C169.775 183.671 172.612 186.508 172.612 190.007V190.427C172.612 194.256 169.866 197.184 166.276 197.184Z" fill="black"/>
<path d="M197.218 190.848C197.218 194.347 194.381 197.184 190.882 197.184V197.184C187.383 197.184 184.546 194.347 184.546 190.848V190.427C184.546 186.599 187.292 183.671 190.882 183.671V183.671C194.381 183.671 197.218 186.508 197.218 190.007V190.848Z" fill="black"/>
<path d="M209.52 190.848V190.007C209.52 186.508 206.683 183.671 203.184 183.671C199.684 183.671 196.848 186.508 196.848 190.007V190.848C196.848 194.347 199.684 197.184 203.184 197.184C206.683 197.184 209.52 194.347 209.52 190.848Z" fill="black"/>
<path d="M221.823 190.848V190.007C221.823 186.508 218.986 183.671 215.486 183.671C211.987 183.671 209.15 186.508 209.15 190.007V190.848C209.15 194.347 211.987 197.184 215.486 197.184C218.986 197.184 221.823 194.347 221.823 190.848Z" fill="black"/>
<path d="M227.79 197.184V197.184C224.291 197.184 221.454 194.347 221.454 190.848V190.007C221.454 186.508 224.291 183.671 227.79 183.671V183.671C231.289 183.671 234.126 186.508 234.126 190.007V190.427C234.126 194.256 231.381 197.184 227.79 197.184Z" fill="black"/>
<path d="M283.337 190.848C283.337 194.347 280.5 197.184 277.001 197.184V197.184C273.502 197.184 270.665 194.347 270.665 190.848V190.427C270.665 186.599 273.411 183.671 277.001 183.671V183.671C280.5 183.671 283.337 186.508 283.337 190.007V190.848Z" fill="black"/>
<path d="M295.642 190.848V190.007C295.642 186.508 292.805 183.671 289.306 183.671C285.806 183.671 282.97 186.508 282.97 190.007V190.848C282.97 194.347 285.806 197.184 289.306 197.184C292.805 197.184 295.642 194.347 295.642 190.848Z" fill="black"/>
<path d="M313.91 197.184C317.41 197.184 320.246 194.159 320.246 190.427C320.246 186.696 317.41 183.671 313.91 183.671C310.411 183.671 307.574 186.696 307.574 190.427C307.574 194.159 310.411 197.184 313.91 197.184Z" fill="black"/>
<path d="M357.156 190.848C357.156 194.347 354.32 197.184 350.82 197.184V197.184C347.23 197.184 344.484 194.256 344.484 190.427C344.484 186.599 347.23 183.671 350.82 183.671V183.671C354.32 183.671 357.156 186.508 357.156 190.007V190.848Z" fill="black"/>
<path d="M369.463 190.848V190.007C369.463 186.508 366.626 183.671 363.127 183.671C359.628 183.671 356.791 186.508 356.791 190.007V190.848C356.791 194.347 359.628 197.184 363.127 197.184C366.626 197.184 369.463 194.347 369.463 190.848Z" fill="black"/>
<path d="M381.762 190.848C381.762 194.347 378.925 197.184 375.426 197.184V197.184C371.927 197.184 369.09 194.347 369.09 190.848V190.007C369.09 186.508 371.927 183.671 375.426 183.671V183.671C379.016 183.671 381.762 186.599 381.762 190.427V190.848Z" fill="black"/>
<path d="M37.2766 203.968C37.2766 207.467 34.4399 210.304 30.9406 210.304V210.304C27.4412 210.304 24.6045 207.467 24.6045 203.968V203.547C24.6045 199.719 27.3501 196.791 30.9406 196.791C34.531 196.791 37.2766 199.719 37.2766 203.547V203.968Z" fill="black"/>
<path d="M61.8831 203.968C61.8831 207.467 59.0463 210.304 55.547 210.304V210.304C51.9566 210.304 49.2109 207.376 49.2109 203.547C49.2109 199.719 51.9566 196.791 55.547 196.791V196.791C59.0463 196.791 61.8831 199.628 61.8831 203.127V203.968Z" fill="black"/>
<path d="M74.1858 203.968V203.127C74.1858 199.628 71.349 196.791 67.8497 196.791C64.3504 196.791 61.5137 199.628 61.5137 203.127V203.968C61.5137 207.467 64.3504 210.304 67.8497 210.304C71.349 210.304 74.1858 207.467 74.1858 203.968Z" fill="black"/>
<path d="M86.4895 203.968V203.127C86.4895 199.628 83.6528 196.791 80.1534 196.791C76.6541 196.791 73.8174 199.628 73.8174 203.127V203.968C73.8174 207.467 76.6541 210.304 80.1534 210.304C83.6528 210.304 86.4895 207.467 86.4895 203.968Z" fill="black"/>
<path d="M92.4562 210.304V210.304C88.9569 210.304 86.1201 207.467 86.1201 203.968V203.127C86.1201 199.628 88.9569 196.791 92.4562 196.791V196.791C95.9555 196.791 98.7922 199.628 98.7922 203.127V203.547C98.7922 207.376 96.0466 210.304 92.4562 210.304Z" fill="black"/>
<path d="M117.063 210.304C113.472 210.304 110.727 207.376 110.727 203.547V203.127C110.727 199.628 113.563 196.791 117.063 196.791V196.791C120.562 196.791 123.399 199.628 123.399 203.127V203.547C123.399 207.376 120.653 210.304 117.063 210.304Z" fill="black"/>
<path d="M153.971 210.304C157.47 210.304 160.307 207.279 160.307 203.547C160.307 199.816 157.47 196.791 153.971 196.791C150.472 196.791 147.635 199.816 147.635 203.547C147.635 207.279 150.472 210.304 153.971 210.304Z" fill="black"/>
<path d="M184.913 203.968C184.913 207.467 182.077 210.304 178.577 210.304V210.304C175.078 210.304 172.241 207.467 172.241 203.968V203.547C172.241 199.719 174.987 196.791 178.577 196.791V196.791C182.077 196.791 184.913 199.628 184.913 203.127V203.968Z" fill="black"/>
<path d="M190.882 210.304V210.304C187.383 210.304 184.546 207.467 184.546 203.968V203.127C184.546 199.628 187.383 196.791 190.882 196.791V196.791C194.381 196.791 197.218 199.628 197.218 203.127V203.547C197.218 207.376 194.472 210.304 190.882 210.304Z" fill="black"/>
<path d="M215.486 210.304C211.896 210.304 209.15 207.376 209.15 203.547V203.127C209.15 199.628 211.987 196.791 215.486 196.791V196.791C218.986 196.791 221.823 199.628 221.823 203.127V203.547C221.823 207.376 219.077 210.304 215.486 210.304Z" fill="black"/>
<path d="M258.731 203.968C258.731 207.467 255.894 210.304 252.395 210.304V210.304C248.895 210.304 246.059 207.467 246.059 203.968V203.547C246.059 199.719 248.804 196.791 252.395 196.791V196.791C255.894 196.791 258.731 199.628 258.731 203.127V203.968Z" fill="black"/>
<path d="M271.035 203.968V203.127C271.035 199.628 268.199 196.791 264.699 196.791C261.2 196.791 258.363 199.628 258.363 203.127V203.968C258.363 207.467 261.2 210.304 264.699 210.304C268.199 210.304 271.035 207.467 271.035 203.968Z" fill="black"/>
<path d="M283.337 203.968V203.127C283.337 199.628 280.5 196.791 277.001 196.791C273.502 196.791 270.665 199.628 270.665 203.127V203.968C270.665 207.467 273.502 210.304 277.001 210.304C280.5 210.304 283.337 207.467 283.337 203.968Z" fill="black"/>
<path d="M295.642 203.968V203.127C295.642 199.628 292.805 196.791 289.306 196.791C285.806 196.791 282.97 199.628 282.97 203.127V203.968C282.97 207.467 285.806 210.304 289.306 210.304C292.805 210.304 295.642 207.467 295.642 203.968Z" fill="black"/>
<path d="M307.946 203.968C307.946 207.467 305.109 210.304 301.609 210.304V210.304C298.11 210.304 295.273 207.467 295.273 203.968V203.127C295.273 199.628 298.11 196.791 301.609 196.791V196.791C305.2 196.791 307.946 199.719 307.946 203.547V203.968Z" fill="black"/>
<path d="M332.55 203.968C332.55 207.467 329.713 210.304 326.214 210.304V210.304C322.624 210.304 319.878 207.376 319.878 203.547C319.878 199.719 322.624 196.791 326.214 196.791V196.791C329.713 196.791 332.55 199.628 332.55 203.127V203.968Z" fill="black"/>
<path d="M338.517 210.304V210.304C335.017 210.304 332.181 207.467 332.181 203.968V203.127C332.181 199.628 335.017 196.791 338.517 196.791V196.791C342.107 196.791 344.853 199.719 344.853 203.547C344.853 207.376 342.107 210.304 338.517 210.304Z" fill="black"/>
<path d="M369.463 203.968C369.463 207.467 366.626 210.304 363.127 210.304V210.304C359.537 210.304 356.791 207.376 356.791 203.547V203.127C356.791 199.628 359.628 196.791 363.127 196.791V196.791C366.626 196.791 369.463 199.628 369.463 203.127V203.968Z" fill="black"/>
<path d="M375.426 210.304V210.304C371.927 210.304 369.09 207.467 369.09 203.968V203.127C369.09 199.628 371.927 196.791 375.426 196.791V196.791C378.925 196.791 381.762 199.628 381.762 203.127V203.547C381.762 207.376 379.016 210.304 375.426 210.304Z" fill="black"/>
<path d="M30.9406 223.422C27.3501 223.422 24.6045 220.494 24.6045 216.666V216.245C24.6045 212.746 27.4412 209.909 30.9406 209.909V209.909C34.4399 209.909 37.2766 212.746 37.2766 216.245V216.666C37.2766 220.494 34.531 223.422 30.9406 223.422Z" fill="black"/>
<path d="M104.762 223.422C108.261 223.422 111.098 220.397 111.098 216.666C111.098 212.934 108.261 209.909 104.762 209.909C101.263 209.909 98.4258 212.934 98.4258 216.666C98.4258 220.397 101.263 223.422 104.762 223.422Z" fill="black"/>
<path d="M135.7 217.086C135.7 220.585 132.864 223.422 129.364 223.422V223.422C125.865 223.422 123.028 220.585 123.028 217.086V216.666C123.028 212.837 125.774 209.909 129.364 209.909C132.955 209.909 135.7 212.837 135.7 216.666V217.086Z" fill="black"/>
<path d="M184.913 217.086V216.245C184.913 212.746 182.077 209.909 178.577 209.909C175.078 209.909 172.241 212.746 172.241 216.245V217.086C172.241 220.585 175.078 223.422 178.577 223.422C182.077 223.422 184.913 220.585 184.913 217.086Z" fill="black"/>
<path d="M209.52 217.086C209.52 220.585 206.683 223.422 203.184 223.422V223.422C199.684 223.422 196.848 220.585 196.848 217.086V216.666C196.848 212.837 199.593 209.909 203.184 209.909C206.774 209.909 209.52 212.837 209.52 216.666V217.086Z" fill="black"/>
<path d="M258.731 217.086V216.245C258.731 212.746 255.894 209.909 252.395 209.909C248.895 209.909 246.059 212.746 246.059 216.245V217.086C246.059 220.585 248.895 223.422 252.395 223.422C255.894 223.422 258.731 220.585 258.731 217.086Z" fill="black"/>
<path d="M283.337 217.086C283.337 220.585 280.5 223.422 277.001 223.422V223.422C273.411 223.422 270.665 220.494 270.665 216.666V216.245C270.665 212.746 273.502 209.909 277.001 209.909V209.909C280.5 209.909 283.337 212.746 283.337 216.245V217.086Z" fill="black"/>
<path d="M295.642 217.086V216.245C295.642 212.746 292.805 209.909 289.306 209.909C285.806 209.909 282.97 212.746 282.97 216.245V217.086C282.97 220.585 285.806 223.422 289.306 223.422C292.805 223.422 295.642 220.585 295.642 217.086Z" fill="black"/>
<path d="M307.946 217.086V216.245C307.946 212.746 305.109 209.909 301.609 209.909C298.11 209.909 295.273 212.746 295.273 216.245V217.086C295.273 220.585 298.11 223.422 301.609 223.422C305.109 223.422 307.946 220.585 307.946 217.086Z" fill="black"/>
<path d="M313.91 223.422V223.422C310.411 223.422 307.574 220.585 307.574 217.086V216.245C307.574 212.746 310.411 209.909 313.91 209.909V209.909C317.501 209.909 320.246 212.837 320.246 216.666C320.246 220.494 317.501 223.422 313.91 223.422Z" fill="black"/>
<path d="M61.8831 230.206C61.8831 233.705 59.0463 236.542 55.547 236.542V236.542C52.0477 236.542 49.2109 233.705 49.2109 230.206V229.786C49.2109 225.957 51.9566 223.029 55.547 223.029C59.1374 223.029 61.8831 225.957 61.8831 229.786V230.206Z" fill="black"/>
<path d="M92.4562 236.542C95.9555 236.542 98.7922 233.517 98.7922 229.786C98.7922 226.054 95.9555 223.029 92.4562 223.029C88.9569 223.029 86.1201 226.054 86.1201 229.786C86.1201 233.517 88.9569 236.542 92.4562 236.542Z" fill="black"/>
<path d="M123.399 230.206C123.399 233.705 120.562 236.542 117.063 236.542V236.542C113.563 236.542 110.727 233.705 110.727 230.206V229.786C110.727 225.957 113.472 223.029 117.063 223.029V223.029C120.562 223.029 123.399 225.866 123.399 229.365V230.206Z" fill="black"/>
<path d="M135.7 230.206V229.365C135.7 225.866 132.864 223.029 129.364 223.029C125.865 223.029 123.028 225.866 123.028 229.365V230.206C123.028 233.705 125.865 236.542 129.364 236.542C132.864 236.542 135.7 233.705 135.7 230.206Z" fill="black"/>
<path d="M184.913 230.206C184.913 233.705 182.077 236.542 178.577 236.542V236.542C174.987 236.542 172.241 233.614 172.241 229.786V229.365C172.241 225.866 175.078 223.029 178.577 223.029V223.029C182.077 223.029 184.913 225.866 184.913 229.365V230.206Z" fill="black"/>
<path d="M197.218 230.206V229.365C197.218 225.866 194.381 223.029 190.882 223.029C187.383 223.029 184.546 225.866 184.546 229.365V230.206C184.546 233.705 187.383 236.542 190.882 236.542C194.381 236.542 197.218 233.705 197.218 230.206Z" fill="black"/>
<path d="M209.52 230.206V229.365C209.52 225.866 206.683 223.029 203.184 223.029C199.684 223.029 196.848 225.866 196.848 229.365V230.206C196.848 233.705 199.684 236.542 203.184 236.542C206.683 236.542 209.52 233.705 209.52 230.206Z" fill="black"/>
<path d="M215.486 236.542V236.542C211.987 236.542 209.15 233.705 209.15 230.206V229.365C209.15 225.866 211.987 223.029 215.486 223.029V223.029C219.077 223.029 221.823 225.957 221.823 229.786C221.823 233.614 219.077 236.542 215.486 236.542Z" fill="black"/>
<path d="M252.395 236.542C248.804 236.542 246.059 233.614 246.059 229.786V229.365C246.059 225.866 248.895 223.029 252.395 223.029V223.029C255.894 223.029 258.731 225.866 258.731 229.365V229.786C258.731 233.614 255.985 236.542 252.395 236.542Z" fill="black"/>
<path d="M332.55 230.206C332.55 233.705 329.713 236.542 326.214 236.542V236.542C322.715 236.542 319.878 233.705 319.878 230.206V229.786C319.878 225.957 322.624 223.029 326.214 223.029V223.029C329.713 223.029 332.55 225.866 332.55 229.365V230.206Z" fill="black"/>
<path d="M344.853 230.206C344.853 233.705 342.016 236.542 338.517 236.542V236.542C335.017 236.542 332.181 233.705 332.181 230.206V229.365C332.181 225.866 335.017 223.029 338.517 223.029V223.029C342.107 223.029 344.853 225.957 344.853 229.786V230.206Z" fill="black"/>
<path d="M61.8831 243.326C61.8831 246.826 59.0463 249.662 55.547 249.662V249.662C51.9566 249.662 49.2109 246.735 49.2109 242.906V242.485C49.2109 238.986 52.0477 236.149 55.547 236.149V236.149C59.0463 236.149 61.8831 238.986 61.8831 242.485V243.326Z" fill="black"/>
<path d="M74.1858 243.326C74.1858 246.826 71.349 249.662 67.8497 249.662V249.662C64.3504 249.662 61.5137 246.826 61.5137 243.326V242.485C61.5137 238.986 64.3504 236.149 67.8497 236.149V236.149C71.4402 236.149 74.1858 239.077 74.1858 242.906V243.326Z" fill="black"/>
<path d="M111.098 243.326C111.098 246.826 108.261 249.662 104.762 249.662V249.662C101.171 249.662 98.4258 246.735 98.4258 242.906C98.4258 239.077 101.171 236.149 104.762 236.149V236.149C108.261 236.149 111.098 238.986 111.098 242.485V243.326Z" fill="black"/>
<path d="M123.399 243.326V242.485C123.399 238.986 120.562 236.149 117.063 236.149C113.563 236.149 110.727 238.986 110.727 242.485V243.326C110.727 246.826 113.563 249.662 117.063 249.662C120.562 249.662 123.399 246.826 123.399 243.326Z" fill="black"/>
<path d="M135.7 243.326V242.485C135.7 238.986 132.864 236.149 129.364 236.149C125.865 236.149 123.028 238.986 123.028 242.485V243.326C123.028 246.826 125.865 249.662 129.364 249.662C132.864 249.662 135.7 246.826 135.7 243.326Z" fill="black"/>
<path d="M160.307 243.326C160.307 246.826 157.47 249.662 153.971 249.662V249.662C150.472 249.662 147.635 246.826 147.635 243.326V242.906C147.635 239.077 150.38 236.149 153.971 236.149V236.149C157.47 236.149 160.307 238.986 160.307 242.485V243.326Z" fill="black"/>
<path d="M172.612 243.326C172.612 246.826 169.775 249.662 166.276 249.662V249.662C162.776 249.662 159.939 246.826 159.939 243.326V242.485C159.939 238.986 162.776 236.149 166.276 236.149V236.149C169.866 236.149 172.612 239.077 172.612 242.906V243.326Z" fill="black"/>
<path d="M240.095 249.662C243.594 249.662 246.431 246.637 246.431 242.906C246.431 239.174 243.594 236.149 240.095 236.149C236.596 236.149 233.759 239.174 233.759 242.906C233.759 246.637 236.596 249.662 240.095 249.662Z" fill="black"/>
<path d="M277.001 249.662C280.5 249.662 283.337 246.637 283.337 242.906C283.337 239.174 280.5 236.149 277.001 236.149C273.502 236.149 270.665 239.174 270.665 242.906C270.665 246.637 273.502 249.662 277.001 249.662Z" fill="black"/>
<path d="M332.55 243.326V242.485C332.55 238.986 329.713 236.149 326.214 236.149C322.715 236.149 319.878 238.986 319.878 242.485V243.326C319.878 246.826 322.715 249.662 326.214 249.662C329.713 249.662 332.55 246.826 332.55 243.326Z" fill="black"/>
<path d="M344.853 243.326V242.485C344.853 238.986 342.016 236.149 338.517 236.149C335.017 236.149 332.181 238.986 332.181 242.485V243.326C332.181 246.826 335.017 249.662 338.517 249.662C342.016 249.662 344.853 246.826 344.853 243.326Z" fill="black"/>
<path d="M357.156 243.326V242.485C357.156 238.986 354.32 236.149 350.82 236.149C347.321 236.149 344.484 238.986 344.484 242.485V243.326C344.484 246.826 347.321 249.662 350.82 249.662C354.32 249.662 357.156 246.826 357.156 243.326Z" fill="black"/>
<path d="M369.463 243.326V242.485C369.463 238.986 366.626 236.149 363.127 236.149C359.628 236.149 356.791 238.986 356.791 242.485V243.326C356.791 246.826 359.628 249.662 363.127 249.662C366.626 249.662 369.463 246.826 369.463 243.326Z" fill="black"/>
<path d="M381.762 243.326C381.762 246.826 378.925 249.662 375.426 249.662V249.662C371.927 249.662 369.09 246.826 369.09 243.326V242.485C369.09 238.986 371.927 236.149 375.426 236.149V236.149C379.016 236.149 381.762 239.077 381.762 242.906V243.326Z" fill="black"/>
<path d="M37.2766 256.446C37.2766 259.946 34.4399 262.782 30.9406 262.782V262.782C27.4412 262.782 24.6045 259.946 24.6045 256.446V256.026C24.6045 252.197 27.3501 249.27 30.9406 249.27C34.531 249.27 37.2766 252.197 37.2766 256.026V256.446Z" fill="black"/>
<path d="M74.1858 256.446V255.606C74.1858 252.106 71.349 249.27 67.8497 249.27C64.3504 249.27 61.5137 252.106 61.5137 255.606V256.446C61.5137 259.946 64.3504 262.782 67.8497 262.782C71.349 262.782 74.1858 259.946 74.1858 256.446Z" fill="black"/>
<path d="M86.4895 256.446C86.4895 259.946 83.6528 262.782 80.1534 262.782V262.782C76.6541 262.782 73.8174 259.946 73.8174 256.446V255.606C73.8174 252.106 76.6541 249.27 80.1534 249.27V249.27C83.7439 249.27 86.4895 252.197 86.4895 256.026V256.446Z" fill="black"/>
<path d="M123.399 256.446C123.399 259.946 120.562 262.782 117.063 262.782V262.782C113.472 262.782 110.727 259.855 110.727 256.026V255.606C110.727 252.106 113.563 249.27 117.063 249.27V249.27C120.562 249.27 123.399 252.106 123.399 255.606V256.446Z" fill="black"/>
<path d="M135.7 256.446V255.606C135.7 252.106 132.864 249.27 129.364 249.27C125.865 249.27 123.028 252.106 123.028 255.606V256.446C123.028 259.946 125.865 262.782 129.364 262.782C132.864 262.782 135.7 259.946 135.7 256.446Z" fill="black"/>
<path d="M160.307 256.446C160.307 259.946 157.47 262.782 153.971 262.782V262.782C150.38 262.782 147.635 259.855 147.635 256.026V255.606C147.635 252.106 150.472 249.27 153.971 249.27V249.27C157.47 249.27 160.307 252.106 160.307 255.606V256.446Z" fill="black"/>
<path d="M172.612 256.446V255.606C172.612 252.106 169.775 249.27 166.276 249.27C162.776 249.27 159.939 252.106 159.939 255.606V256.446C159.939 259.946 162.776 262.782 166.276 262.782C169.775 262.782 172.612 259.946 172.612 256.446Z" fill="black"/>
<path d="M184.913 256.446C184.913 259.946 182.077 262.782 178.577 262.782V262.782C175.078 262.782 172.241 259.946 172.241 256.446V255.606C172.241 252.106 175.078 249.27 178.577 249.27V249.27C182.168 249.27 184.913 252.197 184.913 256.026V256.446Z" fill="black"/>
<path d="M234.126 256.446C234.126 259.946 231.289 262.782 227.79 262.782V262.782C224.291 262.782 221.454 259.946 221.454 256.446V256.026C221.454 252.197 224.2 249.27 227.79 249.27C231.381 249.27 234.126 252.197 234.126 256.026V256.446Z" fill="black"/>
<path d="M264.699 262.782C268.199 262.782 271.035 259.757 271.035 256.026C271.035 252.295 268.199 249.27 264.699 249.27C261.2 249.27 258.363 252.295 258.363 256.026C258.363 259.757 261.2 262.782 264.699 262.782Z" fill="black"/>
<path d="M320.246 256.446C320.246 259.946 317.41 262.782 313.91 262.782V262.782C310.411 262.782 307.574 259.946 307.574 256.446V256.026C307.574 252.197 310.32 249.27 313.91 249.27V249.27C317.41 249.27 320.246 252.106 320.246 255.606V256.446Z" fill="black"/>
<path d="M332.55 256.446V255.606C332.55 252.106 329.713 249.27 326.214 249.27C322.715 249.27 319.878 252.106 319.878 255.606V256.446C319.878 259.946 322.715 262.782 326.214 262.782C329.713 262.782 332.55 259.946 332.55 256.446Z" fill="black"/>
<path d="M357.156 256.446V255.606C357.156 252.106 354.32 249.27 350.82 249.27C347.321 249.27 344.484 252.106 344.484 255.606V256.446C344.484 259.946 347.321 262.782 350.82 262.782C354.32 262.782 357.156 259.946 357.156 256.446Z" fill="black"/>
<path d="M369.463 256.446V255.606C369.463 252.106 366.626 249.27 363.127 249.27C359.628 249.27 356.791 252.106 356.791 255.606V256.446C356.791 259.946 359.628 262.782 363.127 262.782C366.626 262.782 369.463 259.946 369.463 256.446Z" fill="black"/>
<path d="M375.426 262.782V262.782C371.927 262.782 369.09 259.946 369.09 256.446V255.606C369.09 252.106 371.927 249.27 375.426 249.27V249.27C378.925 249.27 381.762 252.106 381.762 255.606V256.026C381.762 259.855 379.016 262.782 375.426 262.782Z" fill="black"/>
<path d="M37.2766 269.563V268.722C37.2766 265.222 34.4399 262.386 30.9406 262.386C27.4412 262.386 24.6045 265.222 24.6045 268.722V269.563C24.6045 273.062 27.4412 275.899 30.9406 275.899C34.4399 275.899 37.2766 273.062 37.2766 269.563Z" fill="black"/>
<path d="M74.1858 269.563C74.1858 273.062 71.349 275.899 67.8497 275.899V275.899C64.2593 275.899 61.5137 272.971 61.5137 269.142V268.722C61.5137 265.222 64.3504 262.386 67.8497 262.386V262.386C71.349 262.386 74.1858 265.222 74.1858 268.722V269.563Z" fill="black"/>
<path d="M86.4895 269.563V268.722C86.4895 265.222 83.6528 262.386 80.1534 262.386C76.6541 262.386 73.8174 265.222 73.8174 268.722V269.563C73.8174 273.062 76.6541 275.899 80.1534 275.899C83.6528 275.899 86.4895 273.062 86.4895 269.563Z" fill="black"/>
<path d="M98.7922 269.563V268.722C98.7922 265.222 95.9555 262.386 92.4562 262.386C88.9569 262.386 86.1201 265.222 86.1201 268.722V269.563C86.1201 273.062 88.9569 275.899 92.4562 275.899C95.9555 275.899 98.7922 273.062 98.7922 269.563Z" fill="black"/>
<path d="M104.762 275.899V275.899C101.263 275.899 98.4258 273.062 98.4258 269.563V268.722C98.4258 265.222 101.263 262.386 104.762 262.386V262.386C108.352 262.386 111.098 265.314 111.098 269.142C111.098 272.971 108.352 275.899 104.762 275.899Z" fill="black"/>
<path d="M135.7 269.563C135.7 273.062 132.864 275.899 129.364 275.899V275.899C125.774 275.899 123.028 272.971 123.028 269.142V268.722C123.028 265.222 125.865 262.386 129.364 262.386V262.386C132.864 262.386 135.7 265.222 135.7 268.722V269.563Z" fill="black"/>
<path d="M141.669 275.899V275.899C138.17 275.899 135.333 273.062 135.333 269.563V268.722C135.333 265.222 138.17 262.386 141.669 262.386V262.386C145.26 262.386 148.005 265.314 148.005 269.142C148.005 272.971 145.26 275.899 141.669 275.899Z" fill="black"/>
<path d="M172.612 269.563C172.612 273.062 169.775 275.899 166.276 275.899V275.899C162.685 275.899 159.939 272.971 159.939 269.142V268.722C159.939 265.222 162.776 262.386 166.276 262.386V262.386C169.775 262.386 172.612 265.222 172.612 268.722V269.563Z" fill="black"/>
<path d="M184.913 269.563V268.722C184.913 265.222 182.077 262.386 178.577 262.386C175.078 262.386 172.241 265.222 172.241 268.722V269.563C172.241 273.062 175.078 275.899 178.577 275.899C182.077 275.899 184.913 273.062 184.913 269.563Z" fill="black"/>
<path d="M197.218 269.563C197.218 273.062 194.381 275.899 190.882 275.899V275.899C187.383 275.899 184.546 273.062 184.546 269.563V268.722C184.546 265.222 187.383 262.386 190.882 262.386V262.386C194.472 262.386 197.218 265.314 197.218 269.142V269.563Z" fill="black"/>
<path d="M221.823 269.563C221.823 273.062 218.986 275.899 215.486 275.899V275.899C211.896 275.899 209.15 272.971 209.15 269.142C209.15 265.314 211.896 262.386 215.486 262.386V262.386C218.986 262.386 221.823 265.222 221.823 268.722V269.563Z" fill="black"/>
<path d="M234.126 269.563V268.722C234.126 265.222 231.289 262.386 227.79 262.386C224.291 262.386 221.454 265.222 221.454 268.722V269.563C221.454 273.062 224.291 275.899 227.79 275.899C231.289 275.899 234.126 273.062 234.126 269.563Z" fill="black"/>
<path d="M252.395 275.899C255.894 275.899 258.731 272.874 258.731 269.142C258.731 265.411 255.894 262.386 252.395 262.386C248.895 262.386 246.059 265.411 246.059 269.142C246.059 272.874 248.895 275.899 252.395 275.899Z" fill="black"/>
<path d="M277.001 275.899C280.5 275.899 283.337 272.874 283.337 269.142C283.337 265.411 280.5 262.386 277.001 262.386C273.502 262.386 270.665 265.411 270.665 269.142C270.665 272.874 273.502 275.899 277.001 275.899Z" fill="black"/>
<path d="M307.946 269.563C307.946 273.062 305.109 275.899 301.609 275.899V275.899C298.11 275.899 295.273 273.062 295.273 269.563V269.142C295.273 265.314 298.019 262.386 301.609 262.386V262.386C305.109 262.386 307.946 265.222 307.946 268.722V269.563Z" fill="black"/>
<path d="M320.246 269.563V268.722C320.246 265.222 317.41 262.386 313.91 262.386C310.411 262.386 307.574 265.222 307.574 268.722V269.563C307.574 273.062 310.411 275.899 313.91 275.899C317.41 275.899 320.246 273.062 320.246 269.563Z" fill="black"/>
<path d="M332.55 269.563V268.722C332.55 265.222 329.713 262.386 326.214 262.386C322.715 262.386 319.878 265.222 319.878 268.722V269.563C319.878 273.062 322.715 275.899 326.214 275.899C329.713 275.899 332.55 273.062 332.55 269.563Z" fill="black"/>
<path d="M344.853 269.563V268.722C344.853 265.222 342.016 262.386 338.517 262.386C335.017 262.386 332.181 265.222 332.181 268.722V269.563C332.181 273.062 335.017 275.899 338.517 275.899C342.016 275.899 344.853 273.062 344.853 269.563Z" fill="black"/>
<path d="M350.82 275.899V275.899C347.321 275.899 344.484 273.062 344.484 269.563V268.722C344.484 265.222 347.321 262.386 350.82 262.386V262.386C354.32 262.386 357.156 265.222 357.156 268.722V269.142C357.156 272.971 354.411 275.899 350.82 275.899Z" fill="black"/>
<path d="M37.2766 282.683V281.842C37.2766 278.343 34.4399 275.506 30.9406 275.506C27.4412 275.506 24.6045 278.343 24.6045 281.842V282.683C24.6045 286.182 27.4412 289.019 30.9406 289.019C34.4399 289.019 37.2766 286.182 37.2766 282.683Z" fill="black"/>
<path d="M61.8831 282.683C61.8831 286.182 59.0463 289.019 55.547 289.019V289.019C52.0477 289.019 49.2109 286.182 49.2109 282.683V282.262C49.2109 278.434 51.9566 275.506 55.547 275.506C59.1374 275.506 61.8831 278.434 61.8831 282.262V282.683Z" fill="black"/>
<path d="M80.1534 289.019C76.563 289.019 73.8174 286.091 73.8174 282.262V281.842C73.8174 278.343 76.6541 275.506 80.1534 275.506V275.506C83.6528 275.506 86.4895 278.343 86.4895 281.842V282.262C86.4895 286.091 83.7439 289.019 80.1534 289.019Z" fill="black"/>
<path d="M153.971 289.019C157.47 289.019 160.307 285.994 160.307 282.262C160.307 278.531 157.47 275.506 153.971 275.506C150.472 275.506 147.635 278.531 147.635 282.262C147.635 285.994 150.472 289.019 153.971 289.019Z" fill="black"/>
<path d="M184.913 282.683V281.842C184.913 278.343 182.077 275.506 178.577 275.506C175.078 275.506 172.241 278.343 172.241 281.842V282.683C172.241 286.182 175.078 289.019 178.577 289.019C182.077 289.019 184.913 286.182 184.913 282.683Z" fill="black"/>
<path d="M197.218 282.683V281.842C197.218 278.343 194.381 275.506 190.882 275.506C187.383 275.506 184.546 278.343 184.546 281.842V282.683C184.546 286.182 187.383 289.019 190.882 289.019C194.381 289.019 197.218 286.182 197.218 282.683Z" fill="black"/>
<path d="M209.52 282.683C209.52 286.182 206.683 289.019 203.184 289.019V289.019C199.684 289.019 196.848 286.182 196.848 282.683V281.842C196.848 278.343 199.684 275.506 203.184 275.506V275.506C206.774 275.506 209.52 278.434 209.52 282.262V282.683Z" fill="black"/>
<path d="M234.126 282.683V281.842C234.126 278.343 231.289 275.506 227.79 275.506C224.291 275.506 221.454 278.343 221.454 281.842V282.683C221.454 286.182 224.291 289.019 227.79 289.019C231.289 289.019 234.126 286.182 234.126 282.683Z" fill="black"/>
<path d="M307.946 282.683V281.842C307.946 278.343 305.109 275.506 301.609 275.506C298.11 275.506 295.273 278.343 295.273 281.842V282.683C295.273 286.182 298.11 289.019 301.609 289.019C305.109 289.019 307.946 286.182 307.946 282.683Z" fill="black"/>
<path d="M320.246 282.683V281.842C320.246 278.343 317.41 275.506 313.91 275.506C310.411 275.506 307.574 278.343 307.574 281.842V282.683C307.574 286.182 310.411 289.019 313.91 289.019C317.41 289.019 320.246 286.182 320.246 282.683Z" fill="black"/>
<path d="M332.55 282.683V281.842C332.55 278.343 329.713 275.506 326.214 275.506C322.715 275.506 319.878 278.343 319.878 281.842V282.683C319.878 286.182 322.715 289.019 326.214 289.019C329.713 289.019 332.55 286.182 332.55 282.683Z" fill="black"/>
<path d="M369.463 282.683C369.463 286.182 366.626 289.019 363.127 289.019V289.019C359.537 289.019 356.791 286.091 356.791 282.262C356.791 278.434 359.537 275.506 363.127 275.506V275.506C366.626 275.506 369.463 278.343 369.463 281.842V282.683Z" fill="black"/>
<path d="M375.426 289.019V289.019C371.927 289.019 369.09 286.182 369.09 282.683V281.842C369.09 278.343 371.927 275.506 375.426 275.506V275.506C379.016 275.506 381.762 278.434 381.762 282.262C381.762 286.091 379.016 289.019 375.426 289.019Z" fill="black"/>
<path d="M30.9406 302.14C27.3501 302.14 24.6045 299.212 24.6045 295.383V294.963C24.6045 291.464 27.4412 288.627 30.9406 288.627V288.627C34.4399 288.627 37.2766 291.464 37.2766 294.963V295.383C37.2766 299.212 34.531 302.14 30.9406 302.14Z" fill="black"/>
<path d="M61.8831 295.804C61.8831 299.303 59.0463 302.14 55.547 302.14V302.14C51.9566 302.14 49.2109 299.212 49.2109 295.383V294.963C49.2109 291.464 52.0477 288.627 55.547 288.627V288.627C59.0463 288.627 61.8831 291.464 61.8831 294.963V295.804Z" fill="black"/>
<path d="M67.8497 302.14V302.14C64.3504 302.14 61.5137 299.303 61.5137 295.804V294.963C61.5137 291.464 64.3504 288.627 67.8497 288.627V288.627C71.4402 288.627 74.1858 291.555 74.1858 295.383C74.1858 299.212 71.4402 302.14 67.8497 302.14Z" fill="black"/>
<path d="M98.7922 295.804C98.7922 299.303 95.9555 302.14 92.4562 302.14V302.14C88.8657 302.14 86.1201 299.212 86.1201 295.383C86.1201 291.555 88.8657 288.627 92.4562 288.627V288.627C95.9555 288.627 98.7922 291.464 98.7922 294.963V295.804Z" fill="black"/>
<path d="M104.762 302.14V302.14C101.263 302.14 98.4258 299.303 98.4258 295.804V294.963C98.4258 291.464 101.263 288.627 104.762 288.627V288.627C108.352 288.627 111.098 291.555 111.098 295.383C111.098 299.212 108.352 302.14 104.762 302.14Z" fill="black"/>
<path d="M135.7 295.804C135.7 299.303 132.864 302.14 129.364 302.14V302.14C125.865 302.14 123.028 299.303 123.028 295.804V295.383C123.028 291.555 125.774 288.627 129.364 288.627C132.955 288.627 135.7 291.555 135.7 295.383V295.804Z" fill="black"/>
<path d="M184.913 295.804V294.963C184.913 291.464 182.077 288.627 178.577 288.627C175.078 288.627 172.241 291.464 172.241 294.963V295.804C172.241 299.303 175.078 302.14 178.577 302.14C182.077 302.14 184.913 299.303 184.913 295.804Z" fill="black"/>
<path d="M209.52 295.804V294.963C209.52 291.464 206.683 288.627 203.184 288.627C199.684 288.627 196.848 291.464 196.848 294.963V295.804C196.848 299.303 199.684 302.14 203.184 302.14C206.683 302.14 209.52 299.303 209.52 295.804Z" fill="black"/>
<path d="M221.823 295.804V294.963C221.823 291.464 218.986 288.627 215.486 288.627C211.987 288.627 209.15 291.464 209.15 294.963V295.804C209.15 299.303 211.987 302.14 215.486 302.14C218.986 302.14 221.823 299.303 221.823 295.804Z" fill="black"/>
<path d="M227.79 302.14V302.14C224.291 302.14 221.454 299.303 221.454 295.804V294.963C221.454 291.464 224.291 288.627 227.79 288.627V288.627C231.289 288.627 234.126 291.464 234.126 294.963V295.383C234.126 299.212 231.381 302.14 227.79 302.14Z" fill="black"/>
<path d="M283.337 295.804C283.337 299.303 280.5 302.14 277.001 302.14V302.14C273.502 302.14 270.665 299.303 270.665 295.804V295.383C270.665 291.555 273.411 288.627 277.001 288.627V288.627C280.5 288.627 283.337 291.464 283.337 294.963V295.804Z" fill="black"/>
<path d="M295.642 295.804V294.963C295.642 291.464 292.805 288.627 289.306 288.627C285.806 288.627 282.97 291.464 282.97 294.963V295.804C282.97 299.303 285.806 302.14 289.306 302.14C292.805 302.14 295.642 299.303 295.642 295.804Z" fill="black"/>
<path d="M307.946 295.804V294.963C307.946 291.464 305.109 288.627 301.609 288.627C298.11 288.627 295.273 291.464 295.273 294.963V295.804C295.273 299.303 298.11 302.14 301.609 302.14C305.109 302.14 307.946 299.303 307.946 295.804Z" fill="black"/>
<path d="M320.246 295.804V294.963C320.246 291.464 317.41 288.627 313.91 288.627C310.411 288.627 307.574 291.464 307.574 294.963V295.804C307.574 299.303 310.411 302.14 313.91 302.14C317.41 302.14 320.246 299.303 320.246 295.804Z" fill="black"/>
<path d="M332.55 295.804V294.963C332.55 291.464 329.713 288.627 326.214 288.627C322.715 288.627 319.878 291.464 319.878 294.963V295.804C319.878 299.303 322.715 302.14 326.214 302.14C329.713 302.14 332.55 299.303 332.55 295.804Z" fill="black"/>
<path d="M350.82 302.14C354.32 302.14 357.156 299.115 357.156 295.383C357.156 291.652 354.32 288.627 350.82 288.627C347.321 288.627 344.484 291.652 344.484 295.383C344.484 299.115 347.321 302.14 350.82 302.14Z" fill="black"/>
<path d="M135.7 308.925C135.7 312.424 132.864 315.261 129.364 315.261V315.261C125.774 315.261 123.028 312.333 123.028 308.505V308.084C123.028 304.585 125.865 301.748 129.364 301.748V301.748C132.864 301.748 135.7 304.585 135.7 308.084V308.925Z" fill="black"/>
<path d="M148.005 308.925V308.084C148.005 304.585 145.168 301.748 141.669 301.748C138.17 301.748 135.333 304.585 135.333 308.084V308.925C135.333 312.424 138.17 315.261 141.669 315.261C145.168 315.261 148.005 312.424 148.005 308.925Z" fill="black"/>
<path d="M160.307 308.925V308.084C160.307 304.585 157.47 301.748 153.971 301.748C150.472 301.748 147.635 304.585 147.635 308.084V308.925C147.635 312.424 150.472 315.261 153.971 315.261C157.47 315.261 160.307 312.424 160.307 308.925Z" fill="black"/>
<path d="M172.612 308.925V308.084C172.612 304.585 169.775 301.748 166.276 301.748C162.776 301.748 159.939 304.585 159.939 308.084V308.925C159.939 312.424 162.776 315.261 166.276 315.261C169.775 315.261 172.612 312.424 172.612 308.925Z" fill="black"/>
<path d="M178.577 315.261V315.261C175.078 315.261 172.241 312.424 172.241 308.925V308.084C172.241 304.585 175.078 301.748 178.577 301.748V301.748C182.077 301.748 184.913 304.585 184.913 308.084V308.505C184.913 312.333 182.168 315.261 178.577 315.261Z" fill="black"/>
<path d="M209.52 308.925V308.084C209.52 304.585 206.683 301.748 203.184 301.748C199.684 301.748 196.848 304.585 196.848 308.084V308.925C196.848 312.424 199.684 315.261 203.184 315.261C206.683 315.261 209.52 312.424 209.52 308.925Z" fill="black"/>
<path d="M221.823 308.925V308.084C221.823 304.585 218.986 301.748 215.486 301.748C211.987 301.748 209.15 304.585 209.15 308.084V308.925C209.15 312.424 211.987 315.261 215.486 315.261C218.986 315.261 221.823 312.424 221.823 308.925Z" fill="black"/>
<path d="M246.431 308.925C246.431 312.424 243.594 315.261 240.095 315.261V315.261C236.596 315.261 233.759 312.424 233.759 308.925V308.505C233.759 304.676 236.504 301.748 240.095 301.748V301.748C243.594 301.748 246.431 304.585 246.431 308.084V308.925Z" fill="black"/>
<path d="M258.731 308.925V308.084C258.731 304.585 255.894 301.748 252.395 301.748C248.895 301.748 246.059 304.585 246.059 308.084V308.925C246.059 312.424 248.895 315.261 252.395 315.261C255.894 315.261 258.731 312.424 258.731 308.925Z" fill="black"/>
<path d="M283.337 308.925V308.084C283.337 304.585 280.5 301.748 277.001 301.748C273.502 301.748 270.665 304.585 270.665 308.084V308.925C270.665 312.424 273.502 315.261 277.001 315.261C280.5 315.261 283.337 312.424 283.337 308.925Z" fill="black"/>
<path d="M332.55 308.925V308.084C332.55 304.585 329.713 301.748 326.214 301.748C322.715 301.748 319.878 304.585 319.878 308.084V308.925C319.878 312.424 322.715 315.261 326.214 315.261C329.713 315.261 332.55 312.424 332.55 308.925Z" fill="black"/>
<path d="M338.517 315.261V315.261C335.017 315.261 332.181 312.424 332.181 308.925V308.084C332.181 304.585 335.017 301.748 338.517 301.748V301.748C342.107 301.748 344.853 304.676 344.853 308.505C344.853 312.333 342.107 315.261 338.517 315.261Z" fill="black"/>
<path d="M369.463 308.925C369.463 312.424 366.626 315.261 363.127 315.261V315.261C359.537 315.261 356.791 312.333 356.791 308.505C356.791 304.676 359.537 301.748 363.127 301.748V301.748C366.626 301.748 369.463 304.585 369.463 308.084V308.925Z" fill="black"/>
<path d="M375.426 315.261V315.261C371.927 315.261 369.09 312.424 369.09 308.925V308.084C369.09 304.585 371.927 301.748 375.426 301.748V301.748C379.016 301.748 381.762 304.676 381.762 308.505C381.762 312.333 379.016 315.261 375.426 315.261Z" fill="black"/>
<path d="M141.669 328.377C138.079 328.377 135.333 325.449 135.333 321.621V321.2C135.333 317.701 138.17 314.864 141.669 314.864V314.864C145.168 314.864 148.005 317.701 148.005 321.2V321.621C148.005 325.449 145.26 328.377 141.669 328.377Z" fill="black"/>
<path d="M166.276 328.377C162.685 328.377 159.939 325.449 159.939 321.621V321.2C159.939 317.701 162.776 314.864 166.276 314.864V314.864C169.775 314.864 172.612 317.701 172.612 321.2V321.621C172.612 325.449 169.866 328.377 166.276 328.377Z" fill="black"/>
<path d="M197.218 322.041C197.218 325.54 194.381 328.377 190.882 328.377V328.377C187.383 328.377 184.546 325.54 184.546 322.041V321.621C184.546 317.792 187.292 314.864 190.882 314.864V314.864C194.381 314.864 197.218 317.701 197.218 321.2V322.041Z" fill="black"/>
<path d="M209.52 322.041V321.2C209.52 317.701 206.683 314.864 203.184 314.864C199.684 314.864 196.848 317.701 196.848 321.2V322.041C196.848 325.54 199.684 328.377 203.184 328.377C206.683 328.377 209.52 325.54 209.52 322.041Z" fill="black"/>
<path d="M221.823 322.041V321.2C221.823 317.701 218.986 314.864 215.486 314.864C211.987 314.864 209.15 317.701 209.15 321.2V322.041C209.15 325.54 211.987 328.377 215.486 328.377C218.986 328.377 221.823 325.54 221.823 322.041Z" fill="black"/>
<path d="M246.431 322.041C246.431 325.54 243.594 328.377 240.095 328.377V328.377C236.504 328.377 233.759 325.449 233.759 321.621V321.2C233.759 317.701 236.596 314.864 240.095 314.864V314.864C243.594 314.864 246.431 317.701 246.431 321.2V322.041Z" fill="black"/>
<path d="M258.731 322.041V321.2C258.731 317.701 255.894 314.864 252.395 314.864C248.895 314.864 246.059 317.701 246.059 321.2V322.041C246.059 325.54 248.895 328.377 252.395 328.377C255.894 328.377 258.731 325.54 258.731 322.041Z" fill="black"/>
<path d="M271.035 322.041V321.2C271.035 317.701 268.199 314.864 264.699 314.864C261.2 314.864 258.363 317.701 258.363 321.2V322.041C258.363 325.54 261.2 328.377 264.699 328.377C268.199 328.377 271.035 325.54 271.035 322.041Z" fill="black"/>
<path d="M283.337 322.041V321.2C283.337 317.701 280.5 314.864 277.001 314.864C273.502 314.864 270.665 317.701 270.665 321.2V322.041C270.665 325.54 273.502 328.377 277.001 328.377C280.5 328.377 283.337 325.54 283.337 322.041Z" fill="black"/>
<path d="M301.609 328.377C305.109 328.377 307.946 325.352 307.946 321.621C307.946 317.889 305.109 314.864 301.609 314.864C298.11 314.864 295.273 317.889 295.273 321.621C295.273 325.352 298.11 328.377 301.609 328.377Z" fill="black"/>
<path d="M332.55 322.041V321.2C332.55 317.701 329.713 314.864 326.214 314.864C322.715 314.864 319.878 317.701 319.878 321.2V322.041C319.878 325.54 322.715 328.377 326.214 328.377C329.713 328.377 332.55 325.54 332.55 322.041Z" fill="black"/>
<path d="M153.971 341.497C157.47 341.497 160.307 338.472 160.307 334.741C160.307 331.009 157.47 327.984 153.971 327.984C150.472 327.984 147.635 331.009 147.635 334.741C147.635 338.472 150.472 341.497 153.971 341.497Z" fill="black"/>
<path d="M197.218 335.161C197.218 338.661 194.381 341.497 190.882 341.497V341.497C187.292 341.497 184.546 338.57 184.546 334.741V334.32C184.546 330.821 187.383 327.984 190.882 327.984V327.984C194.381 327.984 197.218 330.821 197.218 334.32V335.161Z" fill="black"/>
<path d="M209.52 335.161V334.32C209.52 330.821 206.683 327.984 203.184 327.984C199.684 327.984 196.848 330.821 196.848 334.32V335.161C196.848 338.661 199.684 341.497 203.184 341.497C206.683 341.497 209.52 338.661 209.52 335.161Z" fill="black"/>
<path d="M221.823 335.161V334.32C221.823 330.821 218.986 327.984 215.486 327.984C211.987 327.984 209.15 330.821 209.15 334.32V335.161C209.15 338.661 211.987 341.497 215.486 341.497C218.986 341.497 221.823 338.661 221.823 335.161Z" fill="black"/>
<path d="M271.035 335.161C271.035 338.661 268.199 341.497 264.699 341.497V341.497C261.109 341.497 258.363 338.57 258.363 334.741V334.32C258.363 330.821 261.2 327.984 264.699 327.984V327.984C268.199 327.984 271.035 330.821 271.035 334.32V335.161Z" fill="black"/>
<path d="M283.337 335.161V334.32C283.337 330.821 280.5 327.984 277.001 327.984C273.502 327.984 270.665 330.821 270.665 334.32V335.161C270.665 338.661 273.502 341.497 277.001 341.497C280.5 341.497 283.337 338.661 283.337 335.161Z" fill="black"/>
<path d="M332.55 335.161V334.32C332.55 330.821 329.713 327.984 326.214 327.984C322.715 327.984 319.878 330.821 319.878 334.32V335.161C319.878 338.661 322.715 341.497 326.214 341.497C329.713 341.497 332.55 338.661 332.55 335.161Z" fill="black"/>
<path d="M344.853 335.161C344.853 338.661 342.016 341.497 338.517 341.497V341.497C335.017 341.497 332.181 338.661 332.181 335.161V334.32C332.181 330.821 335.017 327.984 338.517 327.984V327.984C342.107 327.984 344.853 330.912 344.853 334.741V335.161Z" fill="black"/>
<path d="M363.127 341.497C366.626 341.497 369.463 338.472 369.463 334.741C369.463 331.009 366.626 327.984 363.127 327.984C359.628 327.984 356.791 331.009 356.791 334.741C356.791 338.472 359.628 341.497 363.127 341.497Z" fill="black"/>
<path d="M135.7 348.279C135.7 351.779 132.864 354.615 129.364 354.615V354.615C125.865 354.615 123.028 351.779 123.028 348.279V347.859C123.028 344.03 125.774 341.103 129.364 341.103C132.955 341.103 135.7 344.03 135.7 347.859V348.279Z" fill="black"/>
<path d="M184.913 348.279C184.913 351.779 182.077 354.615 178.577 354.615V354.615C175.078 354.615 172.241 351.779 172.241 348.279V347.859C172.241 344.03 174.987 341.103 178.577 341.103C182.168 341.103 184.913 344.03 184.913 347.859V348.279Z" fill="black"/>
<path d="M215.486 354.615C211.896 354.615 209.15 351.688 209.15 347.859V347.439C209.15 343.939 211.987 341.103 215.486 341.103V341.103C218.986 341.103 221.823 343.939 221.823 347.439V347.859C221.823 351.688 219.077 354.615 215.486 354.615Z" fill="black"/>
<path d="M283.337 348.279V347.439C283.337 343.939 280.5 341.103 277.001 341.103C273.502 341.103 270.665 343.939 270.665 347.439V348.279C270.665 351.779 273.502 354.615 277.001 354.615C280.5 354.615 283.337 351.779 283.337 348.279Z" fill="black"/>
<path d="M295.642 348.279V347.439C295.642 343.939 292.805 341.103 289.306 341.103C285.806 341.103 282.97 343.939 282.97 347.439V348.279C282.97 351.779 285.806 354.615 289.306 354.615C292.805 354.615 295.642 351.779 295.642 348.279Z" fill="black"/>
<path d="M307.946 348.279V347.439C307.946 343.939 305.109 341.103 301.609 341.103C298.11 341.103 295.273 343.939 295.273 347.439V348.279C295.273 351.779 298.11 354.615 301.609 354.615C305.109 354.615 307.946 351.779 307.946 348.279Z" fill="black"/>
<path d="M320.246 348.279V347.439C320.246 343.939 317.41 341.103 313.91 341.103C310.411 341.103 307.574 343.939 307.574 347.439V348.279C307.574 351.779 310.411 354.615 313.91 354.615C317.41 354.615 320.246 351.779 320.246 348.279Z" fill="black"/>
<path d="M332.55 348.279V347.439C332.55 343.939 329.713 341.103 326.214 341.103C322.715 341.103 319.878 343.939 319.878 347.439V348.279C319.878 351.779 322.715 354.615 326.214 354.615C329.713 354.615 332.55 351.779 332.55 348.279Z" fill="black"/>
<path d="M344.853 348.279V347.439C344.853 343.939 342.016 341.103 338.517 341.103C335.017 341.103 332.181 343.939 332.181 347.439V348.279C332.181 351.779 335.017 354.615 338.517 354.615C342.016 354.615 344.853 351.779 344.853 348.279Z" fill="black"/>
<path d="M357.156 348.279C357.156 351.779 354.32 354.615 350.82 354.615V354.615C347.321 354.615 344.484 351.779 344.484 348.279V347.439C344.484 343.939 347.321 341.103 350.82 341.103V341.103C354.411 341.103 357.156 344.03 357.156 347.859V348.279Z" fill="black"/>
<path d="M375.426 354.615C378.925 354.615 381.762 351.59 381.762 347.859C381.762 344.128 378.925 341.103 375.426 341.103C371.927 341.103 369.09 344.128 369.09 347.859C369.09 351.59 371.927 354.615 375.426 354.615Z" fill="black"/>
<path d="M135.7 361.399V360.558C135.7 357.058 132.864 354.222 129.364 354.222C125.865 354.222 123.028 357.058 123.028 360.558V361.399C123.028 364.898 125.865 367.735 129.364 367.735C132.864 367.735 135.7 364.898 135.7 361.399Z" fill="black"/>
<path d="M148.005 361.399C148.005 364.898 145.168 367.735 141.669 367.735V367.735C138.17 367.735 135.333 364.898 135.333 361.399V360.558C135.333 357.058 138.17 354.222 141.669 354.222V354.222C145.26 354.222 148.005 357.149 148.005 360.978V361.399Z" fill="black"/>
<path d="M172.612 361.399C172.612 364.898 169.775 367.735 166.276 367.735V367.735C162.776 367.735 159.939 364.898 159.939 361.399V360.978C159.939 357.149 162.685 354.222 166.276 354.222V354.222C169.775 354.222 172.612 357.058 172.612 360.558V361.399Z" fill="black"/>
<path d="M184.913 361.399V360.558C184.913 357.058 182.077 354.222 178.577 354.222C175.078 354.222 172.241 357.058 172.241 360.558V361.399C172.241 364.898 175.078 367.735 178.577 367.735C182.077 367.735 184.913 364.898 184.913 361.399Z" fill="black"/>
<path d="M271.035 361.399C271.035 364.898 268.199 367.735 264.699 367.735V367.735C261.2 367.735 258.363 364.898 258.363 361.399V360.978C258.363 357.149 261.109 354.222 264.699 354.222V354.222C268.199 354.222 271.035 357.058 271.035 360.558V361.399Z" fill="black"/>
<path d="M283.337 361.399V360.558C283.337 357.058 280.5 354.222 277.001 354.222C273.502 354.222 270.665 357.058 270.665 360.558V361.399C270.665 364.898 273.502 367.735 277.001 367.735C280.5 367.735 283.337 364.898 283.337 361.399Z" fill="black"/>
<path d="M295.642 361.399V360.558C295.642 357.058 292.805 354.222 289.306 354.222C285.806 354.222 282.97 357.058 282.97 360.558V361.399C282.97 364.898 285.806 367.735 289.306 367.735C292.805 367.735 295.642 364.898 295.642 361.399Z" fill="black"/>
<path d="M320.246 361.399V360.558C320.246 357.058 317.41 354.222 313.91 354.222C310.411 354.222 307.574 357.058 307.574 360.558V361.399C307.574 364.898 310.411 367.735 313.91 367.735C317.41 367.735 320.246 364.898 320.246 361.399Z" fill="black"/>
<path d="M344.853 361.399V360.558C344.853 357.058 342.016 354.222 338.517 354.222C335.017 354.222 332.181 357.058 332.181 360.558V361.399C332.181 364.898 335.017 367.735 338.517 367.735C342.016 367.735 344.853 364.898 344.853 361.399Z" fill="black"/>
<path d="M357.156 361.399V360.558C357.156 357.058 354.32 354.222 350.82 354.222C347.321 354.222 344.484 357.058 344.484 360.558V361.399C344.484 364.898 347.321 367.735 350.82 367.735C354.32 367.735 357.156 364.898 357.156 361.399Z" fill="black"/>
<path d="M135.7 374.518C135.7 378.017 132.864 380.854 129.364 380.854V380.854C125.774 380.854 123.028 377.926 123.028 374.097V373.677C123.028 370.178 125.865 367.341 129.364 367.341V367.341C132.864 367.341 135.7 370.178 135.7 373.677V374.518Z" fill="black"/>
<path d="M141.669 380.854V380.854C138.17 380.854 135.333 378.017 135.333 374.518V373.677C135.333 370.178 138.17 367.341 141.669 367.341V367.341C145.168 367.341 148.005 370.178 148.005 373.677V374.097C148.005 377.926 145.26 380.854 141.669 380.854Z" fill="black"/>
<path d="M172.612 374.518V373.677C172.612 370.178 169.775 367.341 166.276 367.341C162.776 367.341 159.939 370.178 159.939 373.677V374.518C159.939 378.017 162.776 380.854 166.276 380.854C169.775 380.854 172.612 378.017 172.612 374.518Z" fill="black"/>
<path d="M178.577 380.854V380.854C175.078 380.854 172.241 378.017 172.241 374.518V373.677C172.241 370.178 175.078 367.341 178.577 367.341V367.341C182.077 367.341 184.913 370.178 184.913 373.677V374.097C184.913 377.926 182.168 380.854 178.577 380.854Z" fill="black"/>
<path d="M209.52 374.518C209.52 378.017 206.683 380.854 203.184 380.854V380.854C199.684 380.854 196.848 378.017 196.848 374.518V374.097C196.848 370.269 199.593 367.341 203.184 367.341C206.774 367.341 209.52 370.269 209.52 374.097V374.518Z" fill="black"/>
<path d="M258.731 374.518C258.731 378.017 255.894 380.854 252.395 380.854V380.854C248.804 380.854 246.059 377.926 246.059 374.097C246.059 370.269 248.804 367.341 252.395 367.341V367.341C255.894 367.341 258.731 370.178 258.731 373.677V374.518Z" fill="black"/>
<path d="M271.035 374.518V373.677C271.035 370.178 268.199 367.341 264.699 367.341C261.2 367.341 258.363 370.178 258.363 373.677V374.518C258.363 378.017 261.2 380.854 264.699 380.854C268.199 380.854 271.035 378.017 271.035 374.518Z" fill="black"/>
<path d="M283.337 374.518V373.677C283.337 370.178 280.5 367.341 277.001 367.341C273.502 367.341 270.665 370.178 270.665 373.677V374.518C270.665 378.017 273.502 380.854 277.001 380.854C280.5 380.854 283.337 378.017 283.337 374.518Z" fill="black"/>
<path d="M295.642 374.518V373.677C295.642 370.178 292.805 367.341 289.306 367.341C285.806 367.341 282.97 370.178 282.97 373.677V374.518C282.97 378.017 285.806 380.854 289.306 380.854C292.805 380.854 295.642 378.017 295.642 374.518Z" fill="black"/>
<path d="M307.946 374.518V373.677C307.946 370.178 305.109 367.341 301.609 367.341C298.11 367.341 295.273 370.178 295.273 373.677V374.518C295.273 378.017 298.11 380.854 301.609 380.854C305.109 380.854 307.946 378.017 307.946 374.518Z" fill="black"/>
<path d="M320.246 374.518V373.677C320.246 370.178 317.41 367.341 313.91 367.341C310.411 367.341 307.574 370.178 307.574 373.677V374.518C307.574 378.017 310.411 380.854 313.91 380.854C317.41 380.854 320.246 378.017 320.246 374.518Z" fill="black"/>
<path d="M332.55 374.518V373.677C332.55 370.178 329.713 367.341 326.214 367.341C322.715 367.341 319.878 370.178 319.878 373.677V374.518C319.878 378.017 322.715 380.854 326.214 380.854C329.713 380.854 332.55 378.017 332.55 374.518Z" fill="black"/>
<path d="M344.853 374.518V373.677C344.853 370.178 342.016 367.341 338.517 367.341C335.017 367.341 332.181 370.178 332.181 373.677V374.518C332.181 378.017 335.017 380.854 338.517 380.854C342.016 380.854 344.853 378.017 344.853 374.518Z" fill="black"/>
<path d="M357.156 374.518V373.677C357.156 370.178 354.32 367.341 350.82 367.341C347.321 367.341 344.484 370.178 344.484 373.677V374.518C344.484 378.017 347.321 380.854 350.82 380.854C354.32 380.854 357.156 378.017 357.156 374.518Z" fill="black"/>
<path d="M369.463 374.518C369.463 378.017 366.626 380.854 363.127 380.854V380.854C359.628 380.854 356.791 378.017 356.791 374.518V373.677C356.791 370.178 359.628 367.341 363.127 367.341V367.341C366.718 367.341 369.463 370.269 369.463 374.097V374.518Z" fill="black"/>
<path d="M160.307 387.641C160.307 391.14 157.47 393.977 153.971 393.977V393.977C150.472 393.977 147.635 391.14 147.635 387.641V387.22C147.635 383.392 150.38 380.464 153.971 380.464V380.464C157.47 380.464 160.307 383.301 160.307 386.8V387.641Z" fill="black"/>
<path d="M172.612 387.641V386.8C172.612 383.301 169.775 380.464 166.276 380.464C162.776 380.464 159.939 383.301 159.939 386.8V387.641C159.939 391.14 162.776 393.977 166.276 393.977C169.775 393.977 172.612 391.14 172.612 387.641Z" fill="black"/>
<path d="M197.218 387.641C197.218 391.14 194.381 393.977 190.882 393.977V393.977C187.292 393.977 184.546 391.049 184.546 387.22C184.546 383.392 187.292 380.464 190.882 380.464V380.464C194.381 380.464 197.218 383.301 197.218 386.8V387.641Z" fill="black"/>
<path d="M209.52 387.641V386.8C209.52 383.301 206.683 380.464 203.184 380.464C199.684 380.464 196.848 383.301 196.848 386.8V387.641C196.848 391.14 199.684 393.977 203.184 393.977C206.683 393.977 209.52 391.14 209.52 387.641Z" fill="black"/>
<path d="M221.823 387.641V386.8C221.823 383.301 218.986 380.464 215.486 380.464C211.987 380.464 209.15 383.301 209.15 386.8V387.641C209.15 391.14 211.987 393.977 215.486 393.977C218.986 393.977 221.823 391.14 221.823 387.641Z" fill="black"/>
<path d="M234.126 387.641C234.126 391.14 231.289 393.977 227.79 393.977V393.977C224.291 393.977 221.454 391.14 221.454 387.641V386.8C221.454 383.301 224.291 380.464 227.79 380.464V380.464C231.381 380.464 234.126 383.392 234.126 387.22V387.641Z" fill="black"/>
<path d="M271.035 387.641C271.035 391.14 268.199 393.977 264.699 393.977V393.977C261.109 393.977 258.363 391.049 258.363 387.22V386.8C258.363 383.301 261.2 380.464 264.699 380.464V380.464C268.199 380.464 271.035 383.301 271.035 386.8V387.641Z" fill="black"/>
<path d="M283.337 387.641V386.8C283.337 383.301 280.5 380.464 277.001 380.464C273.502 380.464 270.665 383.301 270.665 386.8V387.641C270.665 391.14 273.502 393.977 277.001 393.977C280.5 393.977 283.337 391.14 283.337 387.641Z" fill="black"/>
<path d="M295.642 387.641V386.8C295.642 383.301 292.805 380.464 289.306 380.464C285.806 380.464 282.97 383.301 282.97 386.8V387.641C282.97 391.14 285.806 393.977 289.306 393.977C292.805 393.977 295.642 391.14 295.642 387.641Z" fill="black"/>
<path d="M332.55 387.641V386.8C332.55 383.301 329.713 380.464 326.214 380.464C322.715 380.464 319.878 383.301 319.878 386.8V387.641C319.878 391.14 322.715 393.977 326.214 393.977C329.713 393.977 332.55 391.14 332.55 387.641Z" fill="black"/>
<path d="M338.517 393.977V393.977C335.017 393.977 332.181 391.14 332.181 387.641V386.8C332.181 383.301 335.017 380.464 338.517 380.464V380.464C342.016 380.464 344.853 383.301 344.853 386.8V387.22C344.853 391.049 342.107 393.977 338.517 393.977Z" fill="black"/>
<path d="M363.127 393.977C359.537 393.977 356.791 391.049 356.791 387.22V386.8C356.791 383.301 359.628 380.464 363.127 380.464V380.464C366.626 380.464 369.463 383.301 369.463 386.8V387.22C369.463 391.049 366.718 393.977 363.127 393.977Z" fill="black"/>
<path d="M160.307 400.758C160.307 404.257 157.47 407.094 153.971 407.094V407.094C150.38 407.094 147.635 404.166 147.635 400.338V399.917C147.635 396.418 150.472 393.581 153.971 393.581V393.581C157.47 393.581 160.307 396.418 160.307 399.917V400.758Z" fill="black"/>
<path d="M166.276 407.094V407.094C162.776 407.094 159.939 404.257 159.939 400.758V399.917C159.939 396.418 162.776 393.581 166.276 393.581V393.581C169.775 393.581 172.612 396.418 172.612 399.917V400.338C172.612 404.166 169.866 407.094 166.276 407.094Z" fill="black"/>
<path d="M234.126 400.758C234.126 404.257 231.289 407.094 227.79 407.094V407.094C224.2 407.094 221.454 404.166 221.454 400.338V399.917C221.454 396.418 224.291 393.581 227.79 393.581V393.581C231.289 393.581 234.126 396.418 234.126 399.917V400.758Z" fill="black"/>
<path d="M240.095 407.094V407.094C236.596 407.094 233.759 404.257 233.759 400.758V399.917C233.759 396.418 236.596 393.581 240.095 393.581V393.581C243.685 393.581 246.431 396.509 246.431 400.338C246.431 404.166 243.685 407.094 240.095 407.094Z" fill="black"/>
<path d="M289.306 407.094C285.715 407.094 282.97 404.166 282.97 400.338V399.917C282.97 396.418 285.806 393.581 289.306 393.581V393.581C292.805 393.581 295.642 396.418 295.642 399.917V400.338C295.642 404.166 292.896 407.094 289.306 407.094Z" fill="black"/>
<path d="M326.214 407.094C322.624 407.094 319.878 404.166 319.878 400.338V399.917C319.878 396.418 322.715 393.581 326.214 393.581V393.581C329.713 393.581 332.55 396.418 332.55 399.917V400.338C332.55 404.166 329.804 407.094 326.214 407.094Z" fill="black"/>
<path d="M52.2863 118.075H83.659C98.4227 118.075 110.726 104.955 110.726 89.2121V55.7578C110.726 39.3586 98.4227 26.2393 83.0439 26.2393H51.6712C36.9075 26.2393 24.6045 39.3586 24.6045 55.1018V88.5561C24.6045 104.955 36.9075 118.075 52.2863 118.075ZM98.4227 57.7257V86.5882C98.4227 96.4278 90.4257 104.955 81.1984 104.955H54.1318C44.2893 104.955 36.9075 97.0837 36.9075 86.5882V57.7257C36.9075 47.8862 44.9045 39.3586 54.1318 39.3586H81.1984C91.0409 39.3586 98.4227 47.2302 98.4227 57.7257Z" fill="black"/>
<path d="M322.955 118.075H354.328C369.092 118.075 381.395 104.955 381.395 89.2121V55.7578C381.395 39.3586 369.092 26.2393 353.713 26.2393H322.34C307.576 26.2393 295.273 39.3586 295.273 55.1018V88.5561C295.273 104.955 307.576 118.075 322.955 118.075ZM369.092 57.7257V86.5882C369.092 96.4278 361.095 104.955 351.867 104.955H324.801C314.958 104.955 307.576 97.0837 307.576 86.5882V57.7257C307.576 47.8862 315.573 39.3586 324.801 39.3586H351.867C361.71 39.3586 369.092 47.2302 369.092 57.7257Z" fill="black"/>
<path d="M52.2863 406.7H83.659C98.4227 406.7 110.726 393.58 110.726 377.837V344.383C110.726 327.984 98.4227 314.864 83.0439 314.864H51.6712C36.9075 314.864 24.6045 327.984 24.6045 343.727V377.181C24.6045 393.58 36.9075 406.7 52.2863 406.7ZM98.4227 346.351V375.213C98.4227 385.053 90.4257 393.58 81.1984 393.58H54.1318C44.2893 393.58 36.9075 385.709 36.9075 375.213V346.351C36.9075 336.511 44.9045 327.984 54.1318 327.984H81.1984C91.0409 327.984 98.4227 335.855 98.4227 346.351Z" fill="black"/>
<path d="M86.12 64.285C85.5049 59.0373 81.814 55.1015 76.8928 54.4455C76.644 54.4013 76.3981 54.369 76.155 54.348C70.8984 53.8945 64.3295 54.4455 59.0534 54.4455V54.4455C54.1321 55.1015 49.8261 59.0373 49.2109 64.285C49.2109 66.353 49.4555 68.1601 49.9446 69.7065C50.4856 71.4173 51.6745 72.8157 52.9018 74.1245V74.1245L64.5897 88.5558V88.5558C67.5519 91.7145 71.5717 86.9286 74.4478 83.6913L81.1988 76.0924V76.0924C83.0644 74.103 84.8524 71.8721 85.731 69.2902C86.2549 67.7508 86.445 66.0179 86.12 64.285Z" fill="black"/>
<path d="M356.787 64.285C356.172 59.0373 352.481 55.1015 347.56 54.4455C347.311 54.4013 347.065 54.369 346.822 54.348C341.565 53.8945 334.996 54.4455 329.72 54.4455V54.4455C324.799 55.1015 320.493 59.0373 319.878 64.285C319.878 66.353 320.122 68.1601 320.612 69.7065C321.153 71.4173 322.341 72.8157 323.569 74.1245V74.1245L335.257 88.5558V88.5558C338.219 91.7145 342.239 86.9286 345.115 83.6913L351.866 76.0924V76.0924C353.731 74.103 355.519 71.8721 356.398 69.2902C356.922 67.7508 357.112 66.0179 356.787 64.285Z" fill="black"/>
<path d="M86.12 352.911C85.5049 347.663 81.814 343.727 76.8928 343.071C76.644 343.027 76.3981 342.995 76.155 342.974C70.8984 342.52 64.3295 343.071 59.0534 343.071V343.071C54.1321 343.727 49.8261 347.663 49.2109 352.911C49.2109 354.979 49.4555 356.786 49.9446 358.333C50.4856 360.043 51.6745 361.442 52.9018 362.75V362.75L64.5897 377.182V377.182C67.5519 380.34 71.5717 375.555 74.4478 372.317L81.1988 364.718V364.718C83.0644 362.729 84.8524 360.498 85.731 357.916C86.2549 356.377 86.445 354.644 86.12 352.911Z" fill="black"/>
</g>
</svg>
