<svg width="28" height="28" viewBox="0 0 28 28" fill="none" xmlns="http://www.w3.org/2000/svg">
<path d="M25.257 16H25.262H25.252H25.257ZM24.552 15.48C24.652 15.798 24.94 15.998 25.257 16C25.327 16 25.404 15.98 25.482 15.96C25.872 15.84 26.092 15.41 25.962 15.02C25.932 14.93 22.932 6 14 6C5.06797 6 2.06697 14.93 2.03697 15.02C1.90697 15.41 2.12697 15.83 2.51697 15.96C2.91697 16.09 3.33697 15.87 3.46697 15.48L3.46997 15.475C3.60297 15.085 6.20697 7.5 14.01 7.5C21.852 7.5 24.442 15.15 24.552 15.48ZM8.99997 16C8.99997 14.6739 9.52675 13.4021 10.4644 12.4645C11.4021 11.5268 12.6739 11 14 11C15.3261 11 16.5978 11.5268 17.5355 12.4645C18.4732 13.4021 19 14.6739 19 16C19 17.3261 18.4732 18.5979 17.5355 19.5355C16.5978 20.4732 15.3261 21 14 21C12.6739 21 11.4021 20.4732 10.4644 19.5355C9.52675 18.5979 8.99997 17.3261 8.99997 16Z" fill="#FFE262"/>
</svg>
