<svg width="421" height="147" viewBox="0 0 421 147" fill="none" xmlns="http://www.w3.org/2000/svg">
<g style="mix-blend-mode:hard-light">
<path d="M12.474 141.012V0.206707H66.339C76.041 0.206707 84.609 1.90771 92.043 5.30971C99.603 8.71171 105.525 13.7517 109.809 20.4297C114.093 27.1077 116.235 35.3607 116.235 45.1887C116.235 54.7647 114.03 62.9547 109.62 69.7587C105.21 76.4367 99.288 81.4767 91.854 84.8787L123.984 141.012H91.098L56.322 78.8307L75.222 89.9817H41.769V141.012H12.474ZM41.769 64.4667H66.528C70.686 64.4667 74.277 63.6477 77.301 62.0097C80.325 60.3717 82.656 58.1037 84.294 55.2057C86.058 52.3077 86.94 48.9687 86.94 45.1887C86.94 41.2827 86.058 37.8807 84.294 34.9827C82.656 32.0847 80.325 29.8167 77.301 28.1787C74.277 26.5407 70.686 25.7217 66.528 25.7217H41.769V64.4667ZM238.339 141.012V37.8177H264.799V58.2297L263.287 53.6937C265.681 47.5197 269.524 42.9837 274.816 40.0857C280.234 37.0617 286.534 35.5497 293.716 35.5497C301.528 35.5497 308.332 37.1877 314.128 40.4637C320.05 43.7397 324.649 48.3387 327.925 54.2607C331.201 60.0567 332.839 66.8607 332.839 74.6727V141.012H304.489V80.7207C304.489 76.6887 303.67 73.2237 302.032 70.3257C300.52 67.4277 298.315 65.1597 295.417 63.5217C292.645 61.8837 289.369 61.0647 285.589 61.0647C281.935 61.0647 278.659 61.8837 275.761 63.5217C272.863 65.1597 270.595 67.4277 268.957 70.3257C267.445 73.2237 266.689 76.6887 266.689 80.7207V141.012H238.339ZM401.188 142.146C388.714 142.146 379.012 138.807 372.082 132.129C365.278 125.325 361.876 115.875 361.876 103.779V62.3877H344.488V37.8177H345.433C350.725 37.8177 354.757 36.4947 357.529 33.8487C360.427 31.2027 361.876 27.2337 361.876 21.9417V14.3817H390.226V37.8177H414.418V62.3877H390.226V101.889C390.226 105.417 390.856 108.378 392.116 110.772C393.376 113.04 395.329 114.741 397.975 115.875C400.621 117.009 403.897 117.576 407.803 117.576C408.685 117.576 409.693 117.513 410.827 117.387C411.961 117.261 413.158 117.135 414.418 117.009V141.012C412.528 141.264 410.386 141.516 407.992 141.768C405.598 142.02 403.33 142.146 401.188 142.146Z" fill="#FFD905"/>
</g>
<g style="mix-blend-mode:hard-light">
<path d="M172.078 146.404C183.04 146.379 192.548 143.964 200.601 139.157C208.653 134.225 214.876 127.659 219.267 119.459C223.658 111.259 225.843 102.182 225.82 92.2281C225.797 81.8961 223.508 72.7033 218.954 64.6496C214.273 56.5962 208.022 50.2474 200.199 45.6031C192.377 40.9589 183.551 38.6479 173.723 38.6702C165.533 38.6888 158.291 40.0282 151.997 42.6885C145.703 45.2228 140.419 48.8258 136.146 53.4976C131.747 58.1696 128.42 63.5951 126.166 69.7743C123.912 75.8274 122.793 82.4449 122.809 89.6269C122.814 91.6429 122.944 93.6586 123.201 95.6741C123.331 97.5638 123.65 99.201 124.157 100.586L201.458 100.41L201.41 79.6204L140.175 79.7595L153.616 89.557C152.344 84.1419 152.396 79.3537 153.772 75.1926C155.149 70.9055 157.598 67.5609 161.121 65.1589C164.517 62.6312 168.735 61.3616 173.775 61.3501C178.689 61.339 182.913 62.5264 186.446 64.9124C189.979 67.2984 192.633 70.8204 194.408 75.4783C196.183 80.1363 196.889 85.8047 196.526 92.4836C197.043 98.2784 196.361 103.383 194.481 107.797C192.601 112.212 189.711 115.683 185.811 118.212C181.91 120.615 177.188 121.823 171.644 121.835C166.604 121.847 162.318 120.848 158.785 118.84C155.127 116.833 152.286 114.067 150.262 110.544L127.606 121.368C129.634 126.404 132.857 130.806 137.275 134.576C141.568 138.346 146.677 141.296 152.604 143.424C158.531 145.427 165.022 146.42 172.078 146.404Z" fill="#FFEB3A"/>
</g>
</svg>
