<svg width="69" height="119" viewBox="0 0 69 119" fill="none" xmlns="http://www.w3.org/2000/svg">
<path d="M63.23 56.0405C63.23 58.8823 62.5985 61.5189 61.3354 63.9502C60.0724 66.3815 58.3042 68.3392 56.0308 69.8232C53.7889 71.3073 51.1839 72.0493 48.2158 72.0493C45.4372 72.0493 42.8796 71.3704 40.543 70.0127C38.2064 68.6234 36.0435 66.5236 34.0542 63.7134C32.2228 66.1131 30.1388 68.055 27.8022 69.5391C25.4657 71.0231 23.0501 71.7651 20.5557 71.7651C17.5876 71.7651 14.951 71.1021 12.646 69.7759C10.3726 68.4497 8.58854 66.5868 7.29395 64.187C5.99935 61.7873 5.35205 58.9771 5.35205 55.7563C5.35205 52.8198 5.98356 50.1517 7.24658 47.752C8.5096 45.3206 10.2778 43.3945 12.5513 41.9736C14.8247 40.5527 17.4928 39.8423 20.5557 39.8423C23.1449 39.8423 25.6077 40.4738 27.9443 41.7368C30.2809 42.9998 32.4123 45.1154 34.3384 48.0835C36.2013 45.5575 38.2537 43.584 40.4956 42.1631C42.769 40.7422 45.3424 40.0317 48.2158 40.0317C52.668 40.0317 56.2834 41.5 59.062 44.4365C61.8407 47.373 63.23 51.241 63.23 56.0405ZM28.8916 55.7563C27.6917 53.6092 26.4603 52.0146 25.1973 50.9727C23.9342 49.8991 22.5133 49.3623 20.9346 49.3623C19.1032 49.3623 17.6507 49.9938 16.5771 51.2568C15.5352 52.5199 15.0142 54.0513 15.0142 55.8511C15.0142 57.493 15.5036 58.9613 16.4824 60.2559C17.4928 61.5189 19.0085 62.1504 21.0293 62.1504C22.4502 62.1504 23.7922 61.6294 25.0552 60.5874C26.3498 59.5454 27.6286 57.9351 28.8916 55.7563ZM53.5205 55.9458C53.5205 54.146 52.9679 52.6462 51.8628 51.4463C50.7576 50.2464 49.321 49.6465 47.5527 49.6465C46.195 49.6465 44.853 50.1675 43.5269 51.2095C42.2007 52.2199 40.8903 53.7987 39.5957 55.9458C40.7956 57.9666 42.0744 59.5612 43.4321 60.7295C44.7899 61.8662 46.195 62.4346 47.6475 62.4346C49.4157 62.4346 50.8366 61.8031 51.9102 60.54C52.9837 59.277 53.5205 57.7456 53.5205 55.9458Z" fill="black"/>
<path d="M10.36 110.4C8.22667 110.4 6.61333 109.8 5.52 108.6C4.42667 107.373 3.88 105.627 3.88 103.36V101.76H8.04V103.68C8.04 105.493 8.8 106.4 10.32 106.4C11.0667 106.4 11.6267 106.187 12 105.76C12.4 105.307 12.6 104.587 12.6 103.6C12.6 102.427 12.3333 101.4 11.8 100.52C11.2667 99.6133 10.28 98.5333 8.84 97.28C7.02667 95.68 5.76 94.24 5.04 92.96C4.32 91.6533 3.96 90.1867 3.96 88.56C3.96 86.3467 4.52 84.64 5.64 83.44C6.76 82.2133 8.38667 81.6 10.52 81.6C12.6267 81.6 14.2133 82.2133 15.28 83.44C16.3733 84.64 16.92 86.3733 16.92 88.64V89.8H12.76V88.36C12.76 87.4 12.5733 86.7067 12.2 86.28C11.8267 85.8267 11.28 85.6 10.56 85.6C9.09333 85.6 8.36 86.4933 8.36 88.28C8.36 89.2933 8.62667 90.24 9.16 91.12C9.72 92 10.72 93.0667 12.16 94.32C14 95.92 15.2667 97.3733 15.96 98.68C16.6533 99.9867 17 101.52 17 103.28C17 105.573 16.4267 107.333 15.28 108.56C14.16 109.787 12.52 110.4 10.36 110.4ZM23.7284 98.08L18.4084 82H23.0884L26.0884 92.28H26.1684L29.1684 82H33.4484L28.1284 98.08V110H23.7284V98.08ZM35.8306 82H41.3506L45.6306 98.76H45.7106V82H49.6306V110H45.1106L39.8306 89.56H39.7506V110H35.8306V82ZM59.5009 110.4C57.3943 110.4 55.7809 109.8 54.6609 108.6C53.5676 107.4 53.0209 105.707 53.0209 103.52V88.48C53.0209 86.2933 53.5676 84.6 54.6609 83.4C55.7809 82.2 57.3943 81.6 59.5009 81.6C61.6076 81.6 63.2076 82.2 64.3009 83.4C65.4209 84.6 65.9809 86.2933 65.9809 88.48V91.44H61.8209V88.2C61.8209 86.4667 61.0876 85.6 59.6209 85.6C58.1543 85.6 57.4209 86.4667 57.4209 88.2V103.84C57.4209 105.547 58.1543 106.4 59.6209 106.4C61.0876 106.4 61.8209 105.547 61.8209 103.84V99.56H65.9809V103.52C65.9809 105.707 65.4209 107.4 64.3009 108.6C63.2076 109.8 61.6076 110.4 59.5009 110.4Z" fill="black"/>
</svg>
