<svg width="244" height="49" viewBox="0 0 244 49" fill="none" xmlns="http://www.w3.org/2000/svg">
<g filter="url(#filter0_d_2895_158)">
<path d="M9.08 10H4.48V6H18.08V10H13.48V34H9.08V10ZM19.8103 6H24.2103V17.4H28.9303V6H33.3303V34H28.9303V21.4H24.2103V34H19.8103V6ZM36.2072 6H48.2072V10H40.6072V17.4H46.6472V21.4H40.6072V30H48.2072V34H36.2072V6ZM56.3447 6H62.8247C65.0114 6 66.6514 6.58667 67.7447 7.76C68.838 8.93333 69.3847 10.6533 69.3847 12.92V15.68C69.3847 17.9467 68.838 19.6667 67.7447 20.84C66.6514 22.0133 65.0114 22.6 62.8247 22.6H60.7447V34H56.3447V6ZM62.8247 18.6C63.5447 18.6 64.078 18.4 64.4247 18C64.798 17.6 64.9847 16.92 64.9847 15.96V12.64C64.9847 11.68 64.798 11 64.4247 10.6C64.078 10.2 63.5447 10 62.8247 10H60.7447V18.6H62.8247ZM71.3744 6H83.3744V10H75.7744V17.4H81.8144V21.4H75.7744V30H83.3744V34H71.3744V6ZM88.9056 6H94.8656L99.4256 34H95.0256L94.2256 28.44V28.52H89.2256L88.4256 34H84.3456L88.9056 6ZM93.7056 24.72L91.7456 10.88H91.6656L89.7456 24.72H93.7056ZM107.282 34.4C105.176 34.4 103.562 33.8 102.442 32.6C101.349 31.4 100.802 29.7067 100.802 27.52V12.48C100.802 10.2933 101.349 8.6 102.442 7.4C103.562 6.2 105.176 5.6 107.282 5.6C109.389 5.6 110.989 6.2 112.082 7.4C113.202 8.6 113.762 10.2933 113.762 12.48V15.44H109.602V12.2C109.602 10.4667 108.869 9.6 107.402 9.6C105.936 9.6 105.202 10.4667 105.202 12.2V27.84C105.202 29.5467 105.936 30.4 107.402 30.4C108.869 30.4 109.602 29.5467 109.602 27.84V23.56H113.762V27.52C113.762 29.7067 113.202 31.4 112.082 32.6C110.989 33.8 109.389 34.4 107.282 34.4ZM115.995 6H127.995V10H120.395V17.4H126.435V21.4H120.395V30H127.995V34H115.995V6ZM136.132 6H142.772C145.039 6 146.692 6.53333 147.732 7.6C148.772 8.64 149.292 10.2533 149.292 12.44V13.56C149.292 15 149.052 16.1733 148.572 17.08C148.119 17.9867 147.412 18.64 146.452 19.04V19.12C148.639 19.8667 149.732 21.8133 149.732 24.96V27.36C149.732 29.52 149.159 31.1733 148.012 32.32C146.892 33.44 145.239 34 143.052 34H136.132V6ZM142.252 17.4C143.132 17.4 143.786 17.1733 144.212 16.72C144.666 16.2667 144.892 15.5067 144.892 14.44V12.88C144.892 11.8667 144.706 11.1333 144.332 10.68C143.986 10.2267 143.426 10 142.652 10H140.532V17.4H142.252ZM143.052 30C143.826 30 144.399 29.8 144.772 29.4C145.146 28.9733 145.332 28.2533 145.332 27.24V24.8C145.332 23.52 145.106 22.64 144.652 22.16C144.226 21.6533 143.506 21.4 142.492 21.4H140.532V30H143.052ZM158.264 34.4C156.104 34.4 154.451 33.7867 153.304 32.56C152.157 31.3333 151.584 29.6 151.584 27.36V12.64C151.584 10.4 152.157 8.66667 153.304 7.44C154.451 6.21333 156.104 5.6 158.264 5.6C160.424 5.6 162.077 6.21333 163.224 7.44C164.371 8.66667 164.944 10.4 164.944 12.64V27.36C164.944 29.6 164.371 31.3333 163.224 32.56C162.077 33.7867 160.424 34.4 158.264 34.4ZM158.264 30.4C159.784 30.4 160.544 29.48 160.544 27.64V12.36C160.544 10.52 159.784 9.6 158.264 9.6C156.744 9.6 155.984 10.52 155.984 12.36V27.64C155.984 29.48 156.744 30.4 158.264 30.4ZM170.842 6H176.802L181.362 34H176.962L176.162 28.44V28.52H171.162L170.362 34H166.282L170.842 6ZM175.642 24.72L173.682 10.88H173.602L171.682 24.72H175.642ZM183.096 6H189.616C191.883 6 193.536 6.53333 194.576 7.6C195.616 8.64 196.136 10.2533 196.136 12.44V14.16C196.136 17.0667 195.176 18.9067 193.256 19.68V19.76C194.323 20.08 195.07 20.7333 195.496 21.72C195.95 22.7067 196.176 24.0267 196.176 25.68V30.6C196.176 31.4 196.203 32.0533 196.256 32.56C196.31 33.04 196.443 33.52 196.656 34H192.176C192.016 33.5467 191.91 33.12 191.856 32.72C191.803 32.32 191.776 31.6 191.776 30.56V25.44C191.776 24.16 191.563 23.2667 191.136 22.76C190.736 22.2533 190.03 22 189.016 22H187.496V34H183.096V6ZM189.096 18C189.976 18 190.63 17.7733 191.056 17.32C191.51 16.8667 191.736 16.1067 191.736 15.04V12.88C191.736 11.8667 191.55 11.1333 191.176 10.68C190.83 10.2267 190.27 10 189.496 10H187.496V18H189.096ZM198.829 6H205.549C207.736 6 209.376 6.58667 210.469 7.76C211.562 8.93333 212.109 10.6533 212.109 12.92V27.08C212.109 29.3467 211.562 31.0667 210.469 32.24C209.376 33.4133 207.736 34 205.549 34H198.829V6ZM205.469 30C206.189 30 206.736 29.7867 207.109 29.36C207.509 28.9333 207.709 28.24 207.709 27.28V12.72C207.709 11.76 207.509 11.0667 207.109 10.64C206.736 10.2133 206.189 10 205.469 10H203.229V30H205.469Z" fill="white"/>
</g>
<path d="M214.492 25.6H216.484C217.164 25.6 217.66 25.76 217.972 26.08C218.284 26.392 218.44 26.876 218.44 27.532V27.868C218.44 28.3 218.368 28.652 218.224 28.924C218.088 29.196 217.876 29.392 217.588 29.512V29.536C218.244 29.76 218.572 30.344 218.572 31.288V32.008C218.572 32.656 218.4 33.152 218.056 33.496C217.72 33.832 217.224 34 216.568 34H214.492V25.6ZM216.328 29.02C216.592 29.02 216.788 28.952 216.916 28.816C217.052 28.68 217.12 28.452 217.12 28.132V27.664C217.12 27.36 217.064 27.14 216.952 27.004C216.848 26.868 216.68 26.8 216.448 26.8H215.812V29.02H216.328ZM216.568 32.8C216.8 32.8 216.972 32.74 217.084 32.62C217.196 32.492 217.252 32.276 217.252 31.972V31.24C217.252 30.856 217.184 30.592 217.048 30.448C216.92 30.296 216.704 30.22 216.4 30.22H215.812V32.8H216.568ZM220.248 30.424L218.652 25.6H220.056L220.956 28.684H220.98L221.88 25.6H223.164L221.568 30.424V34H220.248V30.424Z" fill="black"/>
<path d="M227.157 34.12C226.517 34.12 226.033 33.94 225.705 33.58C225.377 33.212 225.213 32.688 225.213 32.008V31.528H226.461V32.104C226.461 32.648 226.689 32.92 227.145 32.92C227.369 32.92 227.537 32.856 227.649 32.728C227.769 32.592 227.829 32.376 227.829 32.08C227.829 31.728 227.749 31.42 227.589 31.156C227.429 30.884 227.133 30.56 226.701 30.184C226.157 29.704 225.777 29.272 225.561 28.888C225.345 28.496 225.237 28.056 225.237 27.568C225.237 26.904 225.405 26.392 225.741 26.032C226.077 25.664 226.565 25.48 227.205 25.48C227.837 25.48 228.313 25.664 228.633 26.032C228.961 26.392 229.125 26.912 229.125 27.592V27.94H227.877V27.508C227.877 27.22 227.821 27.012 227.709 26.884C227.597 26.748 227.433 26.68 227.217 26.68C226.777 26.68 226.557 26.948 226.557 27.484C226.557 27.788 226.637 28.072 226.797 28.336C226.965 28.6 227.265 28.92 227.697 29.296C228.249 29.776 228.629 30.212 228.837 30.604C229.045 30.996 229.149 31.456 229.149 31.984C229.149 32.672 228.977 33.2 228.633 33.568C228.297 33.936 227.805 34.12 227.157 34.12ZM230.927 30.424L229.331 25.6H230.735L231.635 28.684H231.659L232.559 25.6H233.843L232.247 30.424V34H230.927V30.424ZM234.318 25.6H235.974L237.258 30.628H237.282V25.6H238.458V34H237.102L235.518 27.868H235.494V34H234.318V25.6ZM241.179 34.12C240.547 34.12 240.063 33.94 239.727 33.58C239.399 33.22 239.235 32.712 239.235 32.056V27.544C239.235 26.888 239.399 26.38 239.727 26.02C240.063 25.66 240.547 25.48 241.179 25.48C241.811 25.48 242.291 25.66 242.619 26.02C242.955 26.38 243.123 26.888 243.123 27.544V28.432H241.875V27.46C241.875 26.94 241.655 26.68 241.215 26.68C240.775 26.68 240.555 26.94 240.555 27.46V32.152C240.555 32.664 240.775 32.92 241.215 32.92C241.655 32.92 241.875 32.664 241.875 32.152V30.868H243.123V32.056C243.123 32.712 242.955 33.22 242.619 33.58C242.291 33.94 241.811 34.12 241.179 34.12Z" fill="#E28A4B"/>
<path d="M6.00563 37.5H7.65563V46.5H10.3706V48H6.00563V37.5ZM11.1619 37.5H12.8119V48H11.1619V37.5ZM13.6126 37.5H15.2776L16.3576 45.645H16.3876L17.4676 37.5H18.9826L17.3926 48H15.2026L13.6126 37.5ZM19.7752 37.5H24.2752V39H21.4252V41.775H23.6902V43.275H21.4252V46.5H24.2752V48H19.7752V37.5Z" fill="#FFE262"/>
<defs>
<filter id="filter0_d_2895_158" x="0.480469" y="5.59961" width="215.629" height="36.8008" filterUnits="userSpaceOnUse" color-interpolation-filters="sRGB">
<feFlood flood-opacity="0" result="BackgroundImageFix"/>
<feColorMatrix in="SourceAlpha" type="matrix" values="0 0 0 0 0 0 0 0 0 0 0 0 0 0 0 0 0 0 127 0" result="hardAlpha"/>
<feOffset dy="4"/>
<feGaussianBlur stdDeviation="2"/>
<feComposite in2="hardAlpha" operator="out"/>
<feColorMatrix type="matrix" values="0 0 0 0 0 0 0 0 0 0 0 0 0 0 0 0 0 0 0.25 0"/>
<feBlend mode="normal" in2="BackgroundImageFix" result="effect1_dropShadow_2895_158"/>
<feBlend mode="normal" in="SourceGraphic" in2="effect1_dropShadow_2895_158" result="shape"/>
</filter>
</defs>
</svg>
